<?xml version="1.0" encoding="utf-8" standalone="no"?>
<!DOCTYPE svg PUBLIC "-//W3C//DTD SVG 1.1//EN"
  "http://www.w3.org/Graphics/SVG/1.1/DTD/svg11.dtd">
<svg xmlns:xlink="http://www.w3.org/1999/xlink" width="465.736313pt" height="231.072187pt" viewBox="0 0 465.736313 231.072187" xmlns="http://www.w3.org/2000/svg" version="1.1">
 <metadata>
  <rdf:RDF xmlns:dc="http://purl.org/dc/elements/1.1/" xmlns:cc="http://creativecommons.org/ns#" xmlns:rdf="http://www.w3.org/1999/02/22-rdf-syntax-ns#">
   <cc:Work>
    <dc:type rdf:resource="http://purl.org/dc/dcmitype/StillImage"/>
    <dc:date>2025-02-15T13:55:52.890098</dc:date>
    <dc:format>image/svg+xml</dc:format>
    <dc:creator>
     <cc:Agent>
      <dc:title>Matplotlib v3.10.0, https://matplotlib.org/</dc:title>
     </cc:Agent>
    </dc:creator>
   </cc:Work>
  </rdf:RDF>
 </metadata>
 <defs>
  <style type="text/css">*{stroke-linejoin: round; stroke-linecap: butt}</style>
 </defs>
 <g id="figure_1">
  <g id="patch_1">
   <path d="M 0 231.072187 
L 465.736313 231.072187 
L 465.736313 0 
L 0 0 
z
" style="fill: #ffffff"/>
  </g>
  <g id="axes_1">
   <g id="patch_2">
    <path d="M 40.132813 193.894062 
L 458.536313 193.894062 
L 458.536313 20.814062 
L 40.132813 20.814062 
z
" style="fill: #ffffff"/>
   </g>
   <g id="patch_3">
    <path d="M 66.283031 193.894062 
L 118.583469 193.894062 
L 118.583469 148.421485 
L 66.283031 148.421485 
z
" clip-path="url(#p4f2f68fe99)" style="fill: #0033a0; stroke: #ffffff; stroke-linejoin: miter"/>
   </g>
   <g id="patch_4">
    <path d="M 170.883906 193.894062 
L 223.184344 193.894062 
L 223.184344 91.580762 
L 170.883906 91.580762 
z
" clip-path="url(#p4f2f68fe99)" style="fill: #0033a0; stroke: #ffffff; stroke-linejoin: miter"/>
   </g>
   <g id="patch_5">
    <path d="M 275.484781 193.894062 
L 327.785219 193.894062 
L 327.785219 51.792256 
L 275.484781 51.792256 
z
" clip-path="url(#p4f2f68fe99)" style="fill: #0033a0; stroke: #ffffff; stroke-linejoin: miter"/>
   </g>
   <g id="patch_6">
    <path d="M 380.085656 193.894062 
L 432.386094 193.894062 
L 432.386094 29.055967 
L 380.085656 29.055967 
z
" clip-path="url(#p4f2f68fe99)" style="fill: #0033a0; stroke: #ffffff; stroke-linejoin: miter"/>
   </g>
   <g id="matplotlib.axis_1">
    <g id="xtick_1">
     <g id="line2d_1">
      <defs>
       <path id="mc868dfda97" d="M 0 0 
L 0 3.5 
" style="stroke: #737373; stroke-width: 0.8"/>
      </defs>
      <g>
       <use xlink:href="#mc868dfda97" x="92.43325" y="193.894062" style="fill: #737373; stroke: #737373; stroke-width: 0.8"/>
      </g>
     </g>
     <g id="text_1">
      <!-- Less than 15 minutes -->
      <g style="fill: #737373" transform="translate(42.673094 208.1675) scale(0.1 -0.1)">
       <defs>
        <path id="Inter-Regular-4c" d="M 564 0 
L 564 4655 
L 1127 4655 
L 1127 500 
L 3291 500 
L 3291 0 
L 564 0 
z
" transform="scale(0.015625)"/>
        <path id="Inter-Regular-65" d="M 1955 -73 
Q 1450 -73 1085 151 
Q 721 375 524 778 
Q 327 1182 327 1718 
Q 327 2255 524 2665 
Q 721 3075 1074 3305 
Q 1427 3536 1900 3536 
Q 2173 3536 2439 3445 
Q 2705 3355 2923 3151 
Q 3141 2948 3270 2614 
Q 3400 2280 3400 1791 
L 3400 1564 
L 709 1564 
L 709 2027 
L 2855 2027 
Q 2855 2323 2738 2554 
Q 2621 2786 2406 2920 
Q 2191 3055 1900 3055 
Q 1580 3055 1347 2897 
Q 1114 2739 989 2486 
Q 864 2234 864 1945 
L 864 1636 
Q 864 1241 1001 967 
Q 1139 693 1384 551 
Q 1630 409 1955 409 
Q 2166 409 2337 469 
Q 2509 530 2634 651 
Q 2759 773 2827 955 
L 3346 809 
Q 3264 545 3070 346 
Q 2877 148 2593 37 
Q 2309 -73 1955 -73 
z
" transform="scale(0.015625)"/>
        <path id="Inter-Regular-73" d="M 2964 2709 
L 2482 2573 
Q 2436 2693 2348 2808 
Q 2261 2923 2111 2998 
Q 1961 3073 1727 3073 
Q 1407 3073 1194 2926 
Q 982 2780 982 2555 
Q 982 2355 1127 2239 
Q 1273 2123 1582 2045 
L 2100 1918 
Q 2568 1805 2797 1572 
Q 3027 1339 3027 973 
Q 3027 673 2855 436 
Q 2684 200 2377 63 
Q 2071 -73 1664 -73 
Q 1130 -73 780 159 
Q 430 391 336 836 
L 846 964 
Q 918 682 1121 541 
Q 1325 400 1655 400 
Q 2030 400 2251 560 
Q 2473 720 2473 945 
Q 2473 1127 2345 1251 
Q 2218 1375 1955 1436 
L 1373 1573 
Q 893 1686 669 1926 
Q 446 2166 446 2527 
Q 446 2823 613 3050 
Q 780 3277 1069 3406 
Q 1359 3536 1727 3536 
Q 2246 3536 2542 3309 
Q 2839 3082 2964 2709 
z
" transform="scale(0.015625)"/>
        <path id="Inter-Regular-20" transform="scale(0.015625)"/>
        <path id="Inter-Regular-74" d="M 2009 3491 
L 2009 3036 
L 200 3036 
L 200 3491 
L 2009 3491 
z
M 727 4327 
L 1264 4327 
L 1264 1000 
Q 1264 773 1331 660 
Q 1398 548 1503 510 
Q 1609 473 1727 473 
Q 1816 473 1873 483 
Q 1930 493 1964 500 
L 2073 18 
Q 2018 -2 1920 -23 
Q 1823 -45 1673 -45 
Q 1446 -45 1228 52 
Q 1011 150 869 350 
Q 727 550 727 855 
L 727 4327 
z
" transform="scale(0.015625)"/>
        <path id="Inter-Regular-68" d="M 1027 2100 
L 1027 0 
L 491 0 
L 491 4655 
L 1027 4655 
L 1027 2945 
L 1073 2945 
Q 1196 3216 1442 3376 
Q 1689 3536 2100 3536 
Q 2457 3536 2725 3394 
Q 2993 3252 3142 2960 
Q 3291 2668 3291 2218 
L 3291 0 
L 2755 0 
L 2755 2182 
Q 2755 2598 2540 2826 
Q 2325 3055 1946 3055 
Q 1682 3055 1474 2943 
Q 1266 2832 1146 2618 
Q 1027 2405 1027 2100 
z
" transform="scale(0.015625)"/>
        <path id="Inter-Regular-61" d="M 1518 -82 
Q 1186 -82 916 44 
Q 646 170 486 410 
Q 327 650 327 991 
Q 327 1291 445 1478 
Q 564 1666 761 1773 
Q 959 1880 1199 1933 
Q 1439 1986 1682 2018 
Q 2000 2059 2199 2080 
Q 2398 2102 2490 2154 
Q 2582 2207 2582 2336 
L 2582 2355 
Q 2582 2691 2399 2877 
Q 2216 3064 1846 3064 
Q 1461 3064 1243 2895 
Q 1025 2727 936 2536 
L 427 2718 
Q 564 3036 792 3214 
Q 1021 3393 1292 3464 
Q 1564 3536 1827 3536 
Q 1996 3536 2215 3496 
Q 2434 3457 2640 3334 
Q 2846 3211 2982 2963 
Q 3118 2716 3118 2300 
L 3118 0 
L 2582 0 
L 2582 473 
L 2555 473 
Q 2500 359 2373 229 
Q 2246 100 2034 9 
Q 1823 -82 1518 -82 
z
M 1600 400 
Q 1918 400 2137 525 
Q 2357 650 2469 847 
Q 2582 1045 2582 1264 
L 2582 1755 
Q 2548 1714 2433 1681 
Q 2318 1648 2169 1624 
Q 2021 1600 1881 1583 
Q 1741 1566 1655 1555 
Q 1446 1527 1265 1467 
Q 1084 1407 974 1287 
Q 864 1168 864 964 
Q 864 684 1072 542 
Q 1280 400 1600 400 
z
" transform="scale(0.015625)"/>
        <path id="Inter-Regular-6e" d="M 1027 2100 
L 1027 0 
L 491 0 
L 491 3491 
L 1009 3491 
L 1009 2945 
L 1055 2945 
Q 1177 3211 1427 3373 
Q 1677 3536 2073 3536 
Q 2427 3536 2693 3392 
Q 2959 3248 3107 2956 
Q 3255 2664 3255 2218 
L 3255 0 
L 2718 0 
L 2718 2182 
Q 2718 2593 2504 2824 
Q 2291 3055 1918 3055 
Q 1661 3055 1460 2943 
Q 1259 2832 1143 2618 
Q 1027 2405 1027 2100 
z
" transform="scale(0.015625)"/>
        <path id="Inter-Regular-31" d="M 2118 4655 
L 2118 0 
L 1555 0 
L 1555 4064 
L 1527 4064 
L 391 3309 
L 391 3882 
L 1555 4655 
L 2118 4655 
z
" transform="scale(0.015625)"/>
        <path id="Inter-Regular-35" d="M 1936 -64 
Q 1536 -64 1216 95 
Q 896 255 702 532 
Q 509 809 491 1164 
L 1036 1164 
Q 1068 848 1324 642 
Q 1580 436 1936 436 
Q 2223 436 2447 570 
Q 2671 705 2799 940 
Q 2927 1175 2927 1473 
Q 2927 1777 2794 2017 
Q 2661 2257 2429 2395 
Q 2198 2534 1900 2536 
Q 1686 2539 1461 2472 
Q 1236 2405 1091 2300 
L 564 2364 
L 846 4655 
L 3264 4655 
L 3264 4155 
L 1318 4155 
L 1155 2782 
L 1182 2782 
Q 1325 2895 1541 2970 
Q 1757 3045 1991 3045 
Q 2418 3045 2753 2842 
Q 3089 2639 3281 2286 
Q 3473 1934 3473 1482 
Q 3473 1036 3274 687 
Q 3075 339 2727 137 
Q 2380 -64 1936 -64 
z
" transform="scale(0.015625)"/>
        <path id="Inter-Regular-6d" d="M 491 0 
L 491 3491 
L 1009 3491 
L 1009 2945 
L 1055 2945 
Q 1164 3225 1407 3380 
Q 1650 3536 1991 3536 
Q 2336 3536 2567 3380 
Q 2798 3225 2927 2945 
L 2964 2945 
Q 3098 3216 3366 3376 
Q 3634 3536 4009 3536 
Q 4477 3536 4775 3244 
Q 5073 2952 5073 2336 
L 5073 0 
L 4536 0 
L 4536 2336 
Q 4536 2723 4325 2889 
Q 4114 3055 3827 3055 
Q 3459 3055 3257 2833 
Q 3055 2611 3055 2273 
L 3055 0 
L 2509 0 
L 2509 2391 
Q 2509 2689 2316 2872 
Q 2123 3055 1818 3055 
Q 1609 3055 1428 2943 
Q 1248 2832 1137 2635 
Q 1027 2439 1027 2182 
L 1027 0 
L 491 0 
z
" transform="scale(0.015625)"/>
        <path id="Inter-Regular-69" d="M 491 0 
L 491 3491 
L 1027 3491 
L 1027 0 
L 491 0 
z
M 764 4073 
Q 607 4073 494 4179 
Q 382 4286 382 4436 
Q 382 4586 494 4693 
Q 607 4800 764 4800 
Q 921 4800 1033 4693 
Q 1146 4586 1146 4436 
Q 1146 4286 1033 4179 
Q 921 4073 764 4073 
z
" transform="scale(0.015625)"/>
        <path id="Inter-Regular-75" d="M 2691 1427 
L 2691 3491 
L 3227 3491 
L 3227 0 
L 2691 0 
L 2691 591 
L 2655 591 
Q 2532 325 2273 140 
Q 2014 -45 1618 -45 
Q 1291 -45 1036 99 
Q 782 243 636 535 
Q 491 827 491 1273 
L 491 3491 
L 1027 3491 
L 1027 1309 
Q 1027 927 1242 700 
Q 1457 473 1791 473 
Q 1991 473 2199 575 
Q 2407 677 2549 888 
Q 2691 1100 2691 1427 
z
" transform="scale(0.015625)"/>
       </defs>
       <use xlink:href="#Inter-Regular-4c"/>
       <use xlink:href="#Inter-Regular-65" transform="translate(56.250015 0)"/>
       <use xlink:href="#Inter-Regular-73" transform="translate(114.488663 0)"/>
       <use xlink:href="#Inter-Regular-73" transform="translate(166.761398 0)"/>
       <use xlink:href="#Inter-Regular-20" transform="translate(219.034134 0)"/>
       <use xlink:href="#Inter-Regular-74" transform="translate(247.159134 0)"/>
       <use xlink:href="#Inter-Regular-68" transform="translate(283.522781 0)"/>
       <use xlink:href="#Inter-Regular-61" transform="translate(342.613708 0)"/>
       <use xlink:href="#Inter-Regular-6e" transform="translate(399.005768 0)"/>
       <use xlink:href="#Inter-Regular-20" transform="translate(457.528503 0)"/>
       <use xlink:href="#Inter-Regular-31" transform="translate(485.653503 0)"/>
       <use xlink:href="#Inter-Regular-35" transform="translate(532.102371 0)"/>
       <use xlink:href="#Inter-Regular-20" transform="translate(592.897842 0)"/>
       <use xlink:href="#Inter-Regular-6d" transform="translate(621.022842 0)"/>
       <use xlink:href="#Inter-Regular-69" transform="translate(707.954681 0)"/>
       <use xlink:href="#Inter-Regular-6e" transform="translate(731.67627 0)"/>
       <use xlink:href="#Inter-Regular-75" transform="translate(790.199005 0)"/>
       <use xlink:href="#Inter-Regular-74" transform="translate(848.295609 0)"/>
       <use xlink:href="#Inter-Regular-65" transform="translate(884.659256 0)"/>
       <use xlink:href="#Inter-Regular-73" transform="translate(942.897903 0)"/>
      </g>
     </g>
    </g>
    <g id="xtick_2">
     <g id="line2d_2">
      <g>
       <use xlink:href="#mc868dfda97" x="197.034125" y="193.894062" style="fill: #737373; stroke: #737373; stroke-width: 0.8"/>
      </g>
     </g>
     <g id="text_2">
      <!-- 16 - 30 minutes -->
      <g style="fill: #737373" transform="translate(160.058344 208.1675) scale(0.1 -0.1)">
       <defs>
        <path id="Inter-Regular-36" d="M 2027 -64 
Q 1741 -59 1454 45 
Q 1168 150 932 399 
Q 696 648 552 1074 
Q 409 1500 409 2145 
Q 409 2764 525 3242 
Q 641 3720 861 4048 
Q 1082 4377 1394 4547 
Q 1707 4718 2100 4718 
Q 2491 4718 2796 4562 
Q 3102 4407 3295 4129 
Q 3489 3852 3546 3491 
L 2991 3491 
Q 2914 3805 2691 4011 
Q 2468 4218 2100 4218 
Q 1559 4218 1249 3747 
Q 939 3277 936 2427 
L 973 2427 
Q 1100 2620 1276 2757 
Q 1452 2895 1666 2970 
Q 1880 3045 2118 3045 
Q 2518 3045 2850 2846 
Q 3182 2648 3382 2299 
Q 3582 1950 3582 1500 
Q 3582 1068 3389 710 
Q 3196 352 2847 142 
Q 2498 -68 2027 -64 
z
M 2027 436 
Q 2314 436 2542 579 
Q 2771 723 2903 964 
Q 3036 1205 3036 1500 
Q 3036 1789 2908 2026 
Q 2780 2264 2556 2404 
Q 2332 2545 2046 2545 
Q 1830 2545 1643 2460 
Q 1457 2375 1317 2227 
Q 1177 2080 1097 1890 
Q 1018 1700 1018 1491 
Q 1018 1214 1149 973 
Q 1280 732 1508 584 
Q 1736 436 2027 436 
z
" transform="scale(0.015625)"/>
        <path id="Inter-Regular-2d" d="M 2491 2245 
L 2491 1745 
L 455 1745 
L 455 2245 
L 2491 2245 
z
" transform="scale(0.015625)"/>
        <path id="Inter-Regular-33" d="M 2055 -64 
Q 1605 -64 1253 90 
Q 902 245 696 521 
Q 491 798 473 1164 
L 1046 1164 
Q 1064 939 1200 776 
Q 1336 614 1556 525 
Q 1777 436 2046 436 
Q 2346 436 2577 540 
Q 2809 645 2941 831 
Q 3073 1018 3073 1264 
Q 3073 1520 2945 1717 
Q 2818 1914 2572 2025 
Q 2327 2136 1973 2136 
L 1600 2136 
L 1600 2636 
L 1973 2636 
Q 2250 2636 2460 2736 
Q 2671 2836 2790 3018 
Q 2909 3200 2909 3445 
Q 2909 3682 2804 3857 
Q 2700 4032 2510 4129 
Q 2321 4227 2064 4227 
Q 1823 4227 1610 4139 
Q 1398 4052 1264 3887 
Q 1130 3723 1118 3491 
L 573 3491 
Q 586 3857 793 4133 
Q 1000 4409 1335 4563 
Q 1671 4718 2073 4718 
Q 2505 4718 2814 4544 
Q 3123 4370 3289 4086 
Q 3455 3802 3455 3473 
Q 3455 3080 3249 2802 
Q 3043 2525 2691 2418 
L 2691 2382 
Q 3132 2309 3379 2008 
Q 3627 1707 3627 1264 
Q 3627 884 3421 583 
Q 3216 282 2861 109 
Q 2507 -64 2055 -64 
z
" transform="scale(0.015625)"/>
        <path id="Inter-Regular-30" d="M 2000 -64 
Q 1486 -64 1125 217 
Q 764 498 573 1033 
Q 382 1568 382 2327 
Q 382 3082 574 3617 
Q 766 4152 1128 4435 
Q 1491 4718 2000 4718 
Q 2509 4718 2871 4435 
Q 3234 4152 3426 3617 
Q 3618 3082 3618 2327 
Q 3618 1568 3427 1033 
Q 3236 498 2875 217 
Q 2514 -64 2000 -64 
z
M 2000 436 
Q 2509 436 2791 927 
Q 3073 1418 3073 2327 
Q 3073 2932 2944 3357 
Q 2816 3782 2576 4004 
Q 2336 4227 2000 4227 
Q 1496 4227 1211 3730 
Q 927 3234 927 2327 
Q 927 1723 1054 1300 
Q 1182 877 1421 656 
Q 1661 436 2000 436 
z
" transform="scale(0.015625)"/>
       </defs>
       <use xlink:href="#Inter-Regular-31"/>
       <use xlink:href="#Inter-Regular-36" transform="translate(46.448868 0)"/>
       <use xlink:href="#Inter-Regular-20" transform="translate(108.806839 0)"/>
       <use xlink:href="#Inter-Regular-2d" transform="translate(136.931839 0)"/>
       <use xlink:href="#Inter-Regular-20" transform="translate(182.954575 0)"/>
       <use xlink:href="#Inter-Regular-33" transform="translate(211.079575 0)"/>
       <use xlink:href="#Inter-Regular-30" transform="translate(274.715958 0)"/>
       <use xlink:href="#Inter-Regular-20" transform="translate(337.215973 0)"/>
       <use xlink:href="#Inter-Regular-6d" transform="translate(365.340973 0)"/>
       <use xlink:href="#Inter-Regular-69" transform="translate(452.272812 0)"/>
       <use xlink:href="#Inter-Regular-6e" transform="translate(475.9944 0)"/>
       <use xlink:href="#Inter-Regular-75" transform="translate(534.517136 0)"/>
       <use xlink:href="#Inter-Regular-74" transform="translate(592.613739 0)"/>
       <use xlink:href="#Inter-Regular-65" transform="translate(628.977386 0)"/>
       <use xlink:href="#Inter-Regular-73" transform="translate(687.216034 0)"/>
      </g>
     </g>
    </g>
    <g id="xtick_3">
     <g id="line2d_3">
      <g>
       <use xlink:href="#mc868dfda97" x="301.635" y="193.894062" style="fill: #737373; stroke: #737373; stroke-width: 0.8"/>
      </g>
     </g>
     <g id="text_3">
      <!-- 31 - 60 minutes -->
      <g style="fill: #737373" transform="translate(264.659219 208.1675) scale(0.1 -0.1)">
       <use xlink:href="#Inter-Regular-33"/>
       <use xlink:href="#Inter-Regular-31" transform="translate(63.636383 0)"/>
       <use xlink:href="#Inter-Regular-20" transform="translate(110.085251 0)"/>
       <use xlink:href="#Inter-Regular-2d" transform="translate(138.210251 0)"/>
       <use xlink:href="#Inter-Regular-20" transform="translate(184.232986 0)"/>
       <use xlink:href="#Inter-Regular-36" transform="translate(212.357986 0)"/>
       <use xlink:href="#Inter-Regular-30" transform="translate(274.715958 0)"/>
       <use xlink:href="#Inter-Regular-20" transform="translate(337.215973 0)"/>
       <use xlink:href="#Inter-Regular-6d" transform="translate(365.340973 0)"/>
       <use xlink:href="#Inter-Regular-69" transform="translate(452.272812 0)"/>
       <use xlink:href="#Inter-Regular-6e" transform="translate(475.9944 0)"/>
       <use xlink:href="#Inter-Regular-75" transform="translate(534.517136 0)"/>
       <use xlink:href="#Inter-Regular-74" transform="translate(592.613739 0)"/>
       <use xlink:href="#Inter-Regular-65" transform="translate(628.977386 0)"/>
       <use xlink:href="#Inter-Regular-73" transform="translate(687.216034 0)"/>
      </g>
     </g>
    </g>
    <g id="xtick_4">
     <g id="line2d_4">
      <g>
       <use xlink:href="#mc868dfda97" x="406.235875" y="193.894062" style="fill: #737373; stroke: #737373; stroke-width: 0.8"/>
      </g>
     </g>
     <g id="text_4">
      <!-- More than 60 minutes -->
      <g style="fill: #737373" transform="translate(354.346031 208.1675) scale(0.1 -0.1)">
       <defs>
        <path id="Inter-Regular-4d" d="M 564 4655 
L 1236 4655 
L 2818 791 
L 2873 791 
L 4455 4655 
L 5127 4655 
L 5127 0 
L 4600 0 
L 4600 3536 
L 4555 3536 
L 3100 0 
L 2591 0 
L 1136 3536 
L 1091 3536 
L 1091 0 
L 564 0 
L 564 4655 
z
" transform="scale(0.015625)"/>
        <path id="Inter-Regular-6f" d="M 1909 -73 
Q 1436 -73 1080 152 
Q 725 377 526 781 
Q 327 1186 327 1727 
Q 327 2273 526 2679 
Q 725 3086 1080 3311 
Q 1436 3536 1909 3536 
Q 2382 3536 2737 3311 
Q 3093 3086 3292 2679 
Q 3491 2273 3491 1727 
Q 3491 1186 3292 781 
Q 3093 377 2737 152 
Q 2382 -73 1909 -73 
z
M 1909 409 
Q 2268 409 2500 593 
Q 2732 777 2843 1077 
Q 2955 1377 2955 1727 
Q 2955 2077 2843 2379 
Q 2732 2682 2500 2868 
Q 2268 3055 1909 3055 
Q 1550 3055 1318 2868 
Q 1086 2682 975 2379 
Q 864 2077 864 1727 
Q 864 1377 975 1077 
Q 1086 777 1318 593 
Q 1550 409 1909 409 
z
" transform="scale(0.015625)"/>
        <path id="Inter-Regular-72" d="M 491 0 
L 491 3491 
L 1009 3491 
L 1009 2964 
L 1046 2964 
Q 1141 3223 1391 3384 
Q 1641 3545 1955 3545 
Q 2014 3545 2102 3543 
Q 2191 3541 2236 3536 
L 2236 2991 
Q 2209 2998 2112 3012 
Q 2016 3027 1909 3027 
Q 1655 3027 1456 2921 
Q 1257 2816 1142 2630 
Q 1027 2445 1027 2209 
L 1027 0 
L 491 0 
z
" transform="scale(0.015625)"/>
       </defs>
       <use xlink:href="#Inter-Regular-4d"/>
       <use xlink:href="#Inter-Regular-6f" transform="translate(88.920471 0)"/>
       <use xlink:href="#Inter-Regular-72" transform="translate(148.579575 0)"/>
       <use xlink:href="#Inter-Regular-65" transform="translate(185.795486 0)"/>
       <use xlink:href="#Inter-Regular-20" transform="translate(244.034134 0)"/>
       <use xlink:href="#Inter-Regular-74" transform="translate(272.159134 0)"/>
       <use xlink:href="#Inter-Regular-68" transform="translate(308.522781 0)"/>
       <use xlink:href="#Inter-Regular-61" transform="translate(367.613708 0)"/>
       <use xlink:href="#Inter-Regular-6e" transform="translate(424.005768 0)"/>
       <use xlink:href="#Inter-Regular-20" transform="translate(482.528503 0)"/>
       <use xlink:href="#Inter-Regular-36" transform="translate(510.653503 0)"/>
       <use xlink:href="#Inter-Regular-30" transform="translate(573.011475 0)"/>
       <use xlink:href="#Inter-Regular-20" transform="translate(635.51149 0)"/>
       <use xlink:href="#Inter-Regular-6d" transform="translate(663.63649 0)"/>
       <use xlink:href="#Inter-Regular-69" transform="translate(750.568329 0)"/>
       <use xlink:href="#Inter-Regular-6e" transform="translate(774.289917 0)"/>
       <use xlink:href="#Inter-Regular-75" transform="translate(832.812653 0)"/>
       <use xlink:href="#Inter-Regular-74" transform="translate(890.909256 0)"/>
       <use xlink:href="#Inter-Regular-65" transform="translate(927.272903 0)"/>
       <use xlink:href="#Inter-Regular-73" transform="translate(985.511551 0)"/>
      </g>
     </g>
    </g>
    <g id="text_5">
     <!-- Distribution of travel times - key informant approach -->
     <g style="fill: #737373" transform="translate(125.554875 221.826875) scale(0.1 -0.1)">
      <defs>
       <path id="Inter-Regular-44" d="M 2000 0 
L 564 0 
L 564 4655 
L 2064 4655 
Q 2741 4655 3223 4376 
Q 3705 4098 3961 3578 
Q 4218 3059 4218 2336 
Q 4218 1609 3959 1085 
Q 3700 561 3204 280 
Q 2709 0 2000 0 
z
M 1127 500 
L 1964 500 
Q 2541 500 2920 722 
Q 3300 945 3486 1356 
Q 3673 1768 3673 2336 
Q 3673 2900 3489 3308 
Q 3305 3716 2939 3935 
Q 2573 4155 2027 4155 
L 1127 4155 
L 1127 500 
z
" transform="scale(0.015625)"/>
       <path id="Inter-Regular-62" d="M 564 0 
L 564 4655 
L 1100 4655 
L 1100 2936 
L 1146 2936 
Q 1205 3027 1310 3169 
Q 1416 3311 1615 3423 
Q 1814 3536 2155 3536 
Q 2596 3536 2932 3315 
Q 3268 3095 3457 2690 
Q 3646 2286 3646 1736 
Q 3646 1182 3457 776 
Q 3268 370 2934 148 
Q 2600 -73 2164 -73 
Q 1827 -73 1625 39 
Q 1423 152 1314 296 
Q 1205 441 1146 536 
L 1082 536 
L 1082 0 
L 564 0 
z
M 1091 1745 
Q 1091 1350 1207 1049 
Q 1323 748 1545 578 
Q 1768 409 2091 409 
Q 2427 409 2653 587 
Q 2880 766 2994 1069 
Q 3109 1373 3109 1745 
Q 3109 2114 2996 2410 
Q 2884 2707 2658 2881 
Q 2432 3055 2091 3055 
Q 1764 3055 1541 2890 
Q 1318 2725 1204 2430 
Q 1091 2136 1091 1745 
z
" transform="scale(0.015625)"/>
       <path id="Inter-Regular-66" d="M 2046 3491 
L 2046 3036 
L 164 3036 
L 164 3491 
L 2046 3491 
z
M 727 0 
L 727 3973 
Q 727 4273 868 4473 
Q 1009 4673 1234 4773 
Q 1459 4873 1709 4873 
Q 1907 4873 2032 4841 
Q 2157 4809 2218 4782 
L 2064 4318 
Q 2023 4332 1951 4352 
Q 1880 4373 1764 4373 
Q 1498 4373 1381 4239 
Q 1264 4105 1264 3845 
L 1264 0 
L 727 0 
z
" transform="scale(0.015625)"/>
       <path id="Inter-Regular-76" d="M 3346 3491 
L 2055 0 
L 1509 0 
L 218 3491 
L 800 3491 
L 1764 709 
L 1800 709 
L 2764 3491 
L 3346 3491 
z
" transform="scale(0.015625)"/>
       <path id="Inter-Regular-6c" d="M 1027 4655 
L 1027 0 
L 491 0 
L 491 4655 
L 1027 4655 
z
" transform="scale(0.015625)"/>
       <path id="Inter-Regular-6b" d="M 991 1273 
L 982 1936 
L 1091 1936 
L 2618 3491 
L 3282 3491 
L 1655 1845 
L 1609 1845 
L 991 1273 
z
M 491 0 
L 491 4655 
L 1027 4655 
L 1027 0 
L 491 0 
z
M 2709 0 
L 1346 1727 
L 1727 2100 
L 3391 0 
L 2709 0 
z
" transform="scale(0.015625)"/>
       <path id="Inter-Regular-79" d="M 836 -1309 
Q 700 -1309 593 -1287 
Q 486 -1266 446 -1245 
L 582 -773 
Q 777 -823 927 -809 
Q 1077 -795 1194 -676 
Q 1311 -557 1409 -291 
L 1509 -18 
L 218 3491 
L 800 3491 
L 1764 709 
L 1800 709 
L 2764 3491 
L 3346 3491 
L 1864 -509 
Q 1764 -780 1616 -958 
Q 1468 -1136 1274 -1222 
Q 1080 -1309 836 -1309 
z
" transform="scale(0.015625)"/>
       <path id="Inter-Regular-70" d="M 491 -1309 
L 491 3491 
L 1009 3491 
L 1009 2936 
L 1073 2936 
Q 1132 3027 1237 3169 
Q 1343 3311 1542 3423 
Q 1741 3536 2082 3536 
Q 2523 3536 2859 3315 
Q 3196 3095 3384 2690 
Q 3573 2286 3573 1736 
Q 3573 1182 3384 776 
Q 3196 370 2861 148 
Q 2527 -73 2091 -73 
Q 1755 -73 1552 39 
Q 1350 152 1241 296 
Q 1132 441 1073 536 
L 1027 536 
L 1027 -1309 
L 491 -1309 
z
M 1018 1745 
Q 1018 1350 1134 1049 
Q 1250 748 1473 578 
Q 1696 409 2018 409 
Q 2355 409 2581 587 
Q 2807 766 2921 1069 
Q 3036 1373 3036 1745 
Q 3036 2114 2923 2410 
Q 2811 2707 2585 2881 
Q 2359 3055 2018 3055 
Q 1691 3055 1468 2890 
Q 1246 2725 1132 2430 
Q 1018 2136 1018 1745 
z
" transform="scale(0.015625)"/>
       <path id="Inter-Regular-63" d="M 1909 -73 
Q 1418 -73 1063 159 
Q 709 391 518 798 
Q 327 1205 327 1727 
Q 327 2259 524 2667 
Q 721 3075 1074 3305 
Q 1427 3536 1900 3536 
Q 2268 3536 2563 3400 
Q 2859 3264 3047 3018 
Q 3236 2773 3282 2445 
L 2746 2445 
Q 2684 2684 2474 2869 
Q 2264 3055 1909 3055 
Q 1596 3055 1360 2892 
Q 1125 2730 994 2435 
Q 864 2141 864 1745 
Q 864 1341 992 1041 
Q 1121 741 1356 575 
Q 1591 409 1909 409 
Q 2118 409 2288 482 
Q 2459 555 2577 691 
Q 2696 827 2746 1018 
L 3282 1018 
Q 3236 709 3058 462 
Q 2880 216 2588 71 
Q 2296 -73 1909 -73 
z
" transform="scale(0.015625)"/>
      </defs>
      <use xlink:href="#Inter-Regular-44"/>
      <use xlink:href="#Inter-Regular-69" transform="translate(71.875015 0)"/>
      <use xlink:href="#Inter-Regular-73" transform="translate(95.596603 0)"/>
      <use xlink:href="#Inter-Regular-74" transform="translate(147.869339 0)"/>
      <use xlink:href="#Inter-Regular-72" transform="translate(184.232986 0)"/>
      <use xlink:href="#Inter-Regular-69" transform="translate(221.448898 0)"/>
      <use xlink:href="#Inter-Regular-62" transform="translate(245.170486 0)"/>
      <use xlink:href="#Inter-Regular-75" transform="translate(307.24437 0)"/>
      <use xlink:href="#Inter-Regular-74" transform="translate(365.340973 0)"/>
      <use xlink:href="#Inter-Regular-69" transform="translate(401.70462 0)"/>
      <use xlink:href="#Inter-Regular-6f" transform="translate(425.426208 0)"/>
      <use xlink:href="#Inter-Regular-6e" transform="translate(485.085312 0)"/>
      <use xlink:href="#Inter-Regular-20" transform="translate(543.608047 0)"/>
      <use xlink:href="#Inter-Regular-6f" transform="translate(571.733047 0)"/>
      <use xlink:href="#Inter-Regular-66" transform="translate(631.392151 0)"/>
      <use xlink:href="#Inter-Regular-20" transform="translate(667.471695 0)"/>
      <use xlink:href="#Inter-Regular-74" transform="translate(695.596695 0)"/>
      <use xlink:href="#Inter-Regular-72" transform="translate(731.960342 0)"/>
      <use xlink:href="#Inter-Regular-61" transform="translate(769.176254 0)"/>
      <use xlink:href="#Inter-Regular-76" transform="translate(825.568314 0)"/>
      <use xlink:href="#Inter-Regular-65" transform="translate(881.250137 0)"/>
      <use xlink:href="#Inter-Regular-6c" transform="translate(939.488785 0)"/>
      <use xlink:href="#Inter-Regular-20" transform="translate(963.210373 0)"/>
      <use xlink:href="#Inter-Regular-74" transform="translate(991.335373 0)"/>
      <use xlink:href="#Inter-Regular-69" transform="translate(1027.69902 0)"/>
      <use xlink:href="#Inter-Regular-6d" transform="translate(1051.420609 0)"/>
      <use xlink:href="#Inter-Regular-65" transform="translate(1138.352448 0)"/>
      <use xlink:href="#Inter-Regular-73" transform="translate(1196.591095 0)"/>
      <use xlink:href="#Inter-Regular-20" transform="translate(1248.863831 0)"/>
      <use xlink:href="#Inter-Regular-2d" transform="translate(1276.988831 0)"/>
      <use xlink:href="#Inter-Regular-20" transform="translate(1323.011566 0)"/>
      <use xlink:href="#Inter-Regular-6b" transform="translate(1351.136566 0)"/>
      <use xlink:href="#Inter-Regular-65" transform="translate(1405.539978 0)"/>
      <use xlink:href="#Inter-Regular-79" transform="translate(1463.778625 0)"/>
      <use xlink:href="#Inter-Regular-20" transform="translate(1519.460449 0)"/>
      <use xlink:href="#Inter-Regular-69" transform="translate(1547.585449 0)"/>
      <use xlink:href="#Inter-Regular-6e" transform="translate(1571.307037 0)"/>
      <use xlink:href="#Inter-Regular-66" transform="translate(1629.829773 0)"/>
      <use xlink:href="#Inter-Regular-6f" transform="translate(1665.909317 0)"/>
      <use xlink:href="#Inter-Regular-72" transform="translate(1725.56842 0)"/>
      <use xlink:href="#Inter-Regular-6d" transform="translate(1762.784332 0)"/>
      <use xlink:href="#Inter-Regular-61" transform="translate(1849.716171 0)"/>
      <use xlink:href="#Inter-Regular-6e" transform="translate(1906.108231 0)"/>
      <use xlink:href="#Inter-Regular-74" transform="translate(1964.630966 0)"/>
      <use xlink:href="#Inter-Regular-20" transform="translate(2000.994614 0)"/>
      <use xlink:href="#Inter-Regular-61" transform="translate(2029.119614 0)"/>
      <use xlink:href="#Inter-Regular-70" transform="translate(2085.511673 0)"/>
      <use xlink:href="#Inter-Regular-70" transform="translate(2146.449188 0)"/>
      <use xlink:href="#Inter-Regular-72" transform="translate(2207.386703 0)"/>
      <use xlink:href="#Inter-Regular-6f" transform="translate(2244.602615 0)"/>
      <use xlink:href="#Inter-Regular-61" transform="translate(2304.261719 0)"/>
      <use xlink:href="#Inter-Regular-63" transform="translate(2360.653778 0)"/>
      <use xlink:href="#Inter-Regular-68" transform="translate(2416.477646 0)"/>
     </g>
    </g>
   </g>
   <g id="matplotlib.axis_2">
    <g id="ytick_1">
     <g id="line2d_5">
      <defs>
       <path id="m6dd0843f10" d="M 0 0 
L -3.5 0 
" style="stroke: #737373; stroke-width: 0.8"/>
      </defs>
      <g>
       <use xlink:href="#m6dd0843f10" x="40.132813" y="193.894062" style="fill: #737373; stroke: #737373; stroke-width: 0.8"/>
      </g>
     </g>
     <g id="text_6">
      <!-- 0 -->
      <g style="fill: #737373" transform="translate(26.882813 197.530781) scale(0.1 -0.1)">
       <use xlink:href="#Inter-Regular-30"/>
      </g>
     </g>
    </g>
    <g id="ytick_2">
     <g id="line2d_6">
      <g>
       <use xlink:href="#m6dd0843f10" x="40.132813" y="165.473701" style="fill: #737373; stroke: #737373; stroke-width: 0.8"/>
      </g>
     </g>
     <g id="text_7">
      <!-- 5 -->
      <g style="fill: #737373" transform="translate(27.053125 169.11042) scale(0.1 -0.1)">
       <use xlink:href="#Inter-Regular-35"/>
      </g>
     </g>
    </g>
    <g id="ytick_3">
     <g id="line2d_7">
      <g>
       <use xlink:href="#m6dd0843f10" x="40.132813" y="137.05334" style="fill: #737373; stroke: #737373; stroke-width: 0.8"/>
      </g>
     </g>
     <g id="text_8">
      <!-- 10 -->
      <g style="fill: #737373" transform="translate(22.2375 140.690059) scale(0.1 -0.1)">
       <use xlink:href="#Inter-Regular-31"/>
       <use xlink:href="#Inter-Regular-30" transform="translate(46.448868 0)"/>
      </g>
     </g>
    </g>
    <g id="ytick_4">
     <g id="line2d_8">
      <g>
       <use xlink:href="#m6dd0843f10" x="40.132813" y="108.632979" style="fill: #737373; stroke: #737373; stroke-width: 0.8"/>
      </g>
     </g>
     <g id="text_9">
      <!-- 15 -->
      <g style="fill: #737373" transform="translate(22.407813 112.269698) scale(0.1 -0.1)">
       <use xlink:href="#Inter-Regular-31"/>
       <use xlink:href="#Inter-Regular-35" transform="translate(46.448868 0)"/>
      </g>
     </g>
    </g>
    <g id="ytick_5">
     <g id="line2d_9">
      <g>
       <use xlink:href="#m6dd0843f10" x="40.132813" y="80.212618" style="fill: #737373; stroke: #737373; stroke-width: 0.8"/>
      </g>
     </g>
     <g id="text_10">
      <!-- 20 -->
      <g style="fill: #737373" transform="translate(20.83125 83.849336) scale(0.1 -0.1)">
       <defs>
        <path id="Inter-Regular-32" d="M 482 0 
L 482 409 
L 2018 2091 
Q 2289 2386 2464 2605 
Q 2639 2825 2724 3019 
Q 2809 3214 2809 3427 
Q 2809 3673 2692 3852 
Q 2575 4032 2373 4129 
Q 2171 4227 1918 4227 
Q 1650 4227 1451 4117 
Q 1252 4007 1144 3809 
Q 1036 3611 1036 3345 
L 500 3345 
Q 500 3755 688 4064 
Q 877 4373 1203 4545 
Q 1530 4718 1936 4718 
Q 2346 4718 2661 4545 
Q 2977 4373 3156 4079 
Q 3336 3786 3336 3427 
Q 3336 3170 3244 2926 
Q 3152 2682 2926 2383 
Q 2700 2084 2300 1655 
L 1255 536 
L 1255 500 
L 3418 500 
L 3418 0 
L 482 0 
z
" transform="scale(0.015625)"/>
       </defs>
       <use xlink:href="#Inter-Regular-32"/>
       <use xlink:href="#Inter-Regular-30" transform="translate(60.511383 0)"/>
      </g>
     </g>
    </g>
    <g id="ytick_6">
     <g id="line2d_10">
      <g>
       <use xlink:href="#m6dd0843f10" x="40.132813" y="51.792256" style="fill: #737373; stroke: #737373; stroke-width: 0.8"/>
      </g>
     </g>
     <g id="text_11">
      <!-- 25 -->
      <g style="fill: #737373" transform="translate(21.001563 55.428975) scale(0.1 -0.1)">
       <use xlink:href="#Inter-Regular-32"/>
       <use xlink:href="#Inter-Regular-35" transform="translate(60.511383 0)"/>
      </g>
     </g>
    </g>
    <g id="ytick_7">
     <g id="line2d_11">
      <g>
       <use xlink:href="#m6dd0843f10" x="40.132813" y="23.371895" style="fill: #737373; stroke: #737373; stroke-width: 0.8"/>
      </g>
     </g>
     <g id="text_12">
      <!-- 30 -->
      <g style="fill: #737373" transform="translate(20.51875 27.008614) scale(0.1 -0.1)">
       <use xlink:href="#Inter-Regular-33"/>
       <use xlink:href="#Inter-Regular-30" transform="translate(63.636383 0)"/>
      </g>
     </g>
    </g>
    <g id="text_13">
     <!-- Sites -->
     <g style="fill: #737373" transform="translate(14.473438 119.072812) rotate(-90) scale(0.1 -0.1)">
      <defs>
       <path id="Inter-Regular-53" d="M 3109 3491 
Q 3068 3836 2777 4027 
Q 2486 4218 2064 4218 
Q 1755 4218 1524 4118 
Q 1293 4018 1164 3843 
Q 1036 3668 1036 3445 
Q 1036 3259 1126 3126 
Q 1216 2993 1357 2905 
Q 1498 2818 1652 2762 
Q 1807 2707 1936 2673 
L 2409 2545 
Q 2591 2498 2815 2414 
Q 3039 2330 3244 2185 
Q 3450 2041 3584 1816 
Q 3718 1591 3718 1264 
Q 3718 886 3521 581 
Q 3325 277 2949 97 
Q 2573 -82 2036 -82 
Q 1536 -82 1171 79 
Q 807 241 599 529 
Q 391 818 364 1200 
L 946 1200 
Q 968 936 1124 764 
Q 1280 593 1519 510 
Q 1759 427 2036 427 
Q 2359 427 2616 533 
Q 2873 639 3023 828 
Q 3173 1018 3173 1273 
Q 3173 1505 3043 1650 
Q 2914 1795 2702 1886 
Q 2491 1977 2246 2045 
L 1673 2209 
Q 1127 2366 809 2657 
Q 491 2948 491 3418 
Q 491 3809 703 4101 
Q 916 4393 1276 4555 
Q 1636 4718 2082 4718 
Q 2532 4718 2882 4558 
Q 3232 4398 3437 4120 
Q 3643 3843 3655 3491 
L 3109 3491 
z
" transform="scale(0.015625)"/>
      </defs>
      <use xlink:href="#Inter-Regular-53"/>
      <use xlink:href="#Inter-Regular-69" transform="translate(63.778427 0)"/>
      <use xlink:href="#Inter-Regular-74" transform="translate(87.500015 0)"/>
      <use xlink:href="#Inter-Regular-65" transform="translate(123.863663 0)"/>
      <use xlink:href="#Inter-Regular-73" transform="translate(182.10231 0)"/>
     </g>
    </g>
   </g>
   <g id="patch_7">
    <path d="M 40.132813 193.894062 
L 40.132813 20.814062 
" style="fill: none; stroke: #737373; stroke-width: 0.8; stroke-linejoin: miter; stroke-linecap: square"/>
   </g>
   <g id="patch_8">
    <path d="M 40.132813 193.894062 
L 458.536313 193.894062 
" style="fill: none; stroke: #737373; stroke-width: 0.8; stroke-linejoin: miter; stroke-linecap: square"/>
   </g>
   <g id="text_14">
    <!-- 8 -->
    <g style="fill: #737373" transform="translate(89.350438 143.376172) scale(0.1 -0.1)">
     <defs>
      <path id="Inter-Regular-38" d="M 1973 -64 
Q 1505 -64 1147 103 
Q 789 270 589 564 
Q 389 859 391 1236 
Q 389 1532 507 1783 
Q 625 2034 830 2203 
Q 1036 2373 1291 2418 
L 1291 2445 
Q 957 2532 759 2821 
Q 561 3111 564 3482 
Q 561 3836 743 4115 
Q 925 4395 1244 4556 
Q 1564 4718 1973 4718 
Q 2377 4718 2695 4556 
Q 3014 4395 3197 4115 
Q 3380 3836 3382 3482 
Q 3380 3111 3181 2821 
Q 2982 2532 2655 2445 
L 2655 2418 
Q 2907 2373 3109 2203 
Q 3311 2034 3431 1783 
Q 3552 1532 3555 1236 
Q 3552 859 3351 564 
Q 3150 270 2794 103 
Q 2439 -64 1973 -64 
z
M 1973 436 
Q 2289 436 2518 538 
Q 2748 641 2873 827 
Q 2998 1014 3000 1264 
Q 2998 1527 2864 1729 
Q 2730 1932 2499 2048 
Q 2268 2164 1973 2164 
Q 1675 2164 1442 2048 
Q 1209 1932 1076 1729 
Q 943 1527 946 1264 
Q 943 1014 1067 827 
Q 1191 641 1423 538 
Q 1655 436 1973 436 
z
M 1973 2645 
Q 2223 2645 2417 2745 
Q 2611 2845 2722 3025 
Q 2834 3205 2836 3445 
Q 2834 3682 2725 3858 
Q 2616 4034 2423 4130 
Q 2230 4227 1973 4227 
Q 1711 4227 1516 4130 
Q 1321 4034 1214 3858 
Q 1107 3682 1109 3445 
Q 1107 3205 1217 3025 
Q 1327 2845 1522 2745 
Q 1718 2645 1973 2645 
z
" transform="scale(0.015625)"/>
     </defs>
     <use xlink:href="#Inter-Regular-38"/>
    </g>
   </g>
   <g id="text_15">
    <!-- 18 -->
    <g style="fill: #737373" transform="translate(191.628656 86.53545) scale(0.1 -0.1)">
     <use xlink:href="#Inter-Regular-31"/>
     <use xlink:href="#Inter-Regular-38" transform="translate(46.448868 0)"/>
    </g>
   </g>
   <g id="text_16">
    <!-- 25 -->
    <g style="fill: #737373" transform="translate(295.569375 46.746944) scale(0.1 -0.1)">
     <use xlink:href="#Inter-Regular-32"/>
     <use xlink:href="#Inter-Regular-35" transform="translate(60.511383 0)"/>
    </g>
   </g>
   <g id="text_17">
    <!-- 29 -->
    <g style="fill: #737373" transform="translate(400.092125 24.010655) scale(0.1 -0.1)">
     <defs>
      <path id="Inter-Regular-39" d="M 1964 4718 
Q 2250 4716 2536 4609 
Q 2823 4502 3059 4255 
Q 3296 4009 3439 3584 
Q 3582 3159 3582 2518 
Q 3582 1898 3465 1417 
Q 3348 936 3128 606 
Q 2909 277 2596 106 
Q 2284 -64 1891 -64 
Q 1500 -64 1194 92 
Q 889 248 694 526 
Q 500 805 446 1173 
L 1000 1173 
Q 1075 852 1299 644 
Q 1523 436 1891 436 
Q 2430 436 2742 906 
Q 3055 1377 3055 2236 
L 3018 2236 
Q 2891 2045 2716 1906 
Q 2541 1768 2327 1693 
Q 2114 1618 1873 1618 
Q 1473 1618 1140 1817 
Q 807 2016 608 2365 
Q 409 2714 409 3164 
Q 409 3591 601 3946 
Q 793 4302 1142 4513 
Q 1491 4725 1964 4718 
z
M 1964 4218 
Q 1677 4218 1449 4076 
Q 1221 3934 1088 3694 
Q 955 3455 955 3164 
Q 955 2873 1083 2635 
Q 1211 2398 1435 2258 
Q 1659 2118 1946 2118 
Q 2161 2118 2347 2203 
Q 2534 2289 2674 2437 
Q 2814 2586 2893 2776 
Q 2973 2966 2973 3173 
Q 2973 3445 2842 3684 
Q 2711 3923 2483 4070 
Q 2255 4218 1964 4218 
z
" transform="scale(0.015625)"/>
     </defs>
     <use xlink:href="#Inter-Regular-32"/>
     <use xlink:href="#Inter-Regular-39" transform="translate(60.511383 0)"/>
    </g>
   </g>
   <g id="text_18">
    <!-- Count of Time to Nearest Health Facility from the Site -->
    <g style="fill: #737373" transform="translate(122.58925 14.814062) scale(0.1 -0.1)">
     <defs>
      <path id="Inter-Regular-43" d="M 4309 3200 
L 3746 3200 
Q 3696 3443 3572 3627 
Q 3448 3811 3272 3937 
Q 3096 4064 2882 4127 
Q 2668 4191 2436 4191 
Q 2014 4191 1672 3977 
Q 1330 3764 1128 3348 
Q 927 2932 927 2327 
Q 927 1723 1128 1307 
Q 1330 891 1672 677 
Q 2014 464 2436 464 
Q 2668 464 2882 527 
Q 3096 591 3272 717 
Q 3448 843 3572 1028 
Q 3696 1214 3746 1455 
L 4309 1455 
Q 4246 1098 4077 816 
Q 3909 534 3659 337 
Q 3409 141 3099 38 
Q 2789 -64 2436 -64 
Q 1841 -64 1377 227 
Q 914 518 648 1054 
Q 382 1591 382 2327 
Q 382 3064 648 3600 
Q 914 4136 1377 4427 
Q 1841 4718 2436 4718 
Q 2789 4718 3099 4616 
Q 3409 4514 3659 4317 
Q 3909 4120 4077 3839 
Q 4246 3559 4309 3200 
z
" transform="scale(0.015625)"/>
      <path id="Inter-Regular-54" d="M 309 4155 
L 309 4655 
L 3800 4655 
L 3800 4155 
L 2336 4155 
L 2336 0 
L 1773 0 
L 1773 4155 
L 309 4155 
z
" transform="scale(0.015625)"/>
      <path id="Inter-Regular-4e" d="M 4255 4655 
L 4255 0 
L 3709 0 
L 1173 3655 
L 1127 3655 
L 1127 0 
L 564 0 
L 564 4655 
L 1109 4655 
L 3655 991 
L 3700 991 
L 3700 4655 
L 4255 4655 
z
" transform="scale(0.015625)"/>
      <path id="Inter-Regular-48" d="M 564 0 
L 564 4655 
L 1127 4655 
L 1127 2582 
L 3609 2582 
L 3609 4655 
L 4173 4655 
L 4173 0 
L 3609 0 
L 3609 2082 
L 1127 2082 
L 1127 0 
L 564 0 
z
" transform="scale(0.015625)"/>
      <path id="Inter-Regular-46" d="M 564 0 
L 564 4655 
L 3355 4655 
L 3355 4155 
L 1127 4155 
L 1127 2582 
L 3146 2582 
L 3146 2082 
L 1127 2082 
L 1127 0 
L 564 0 
z
" transform="scale(0.015625)"/>
     </defs>
     <use xlink:href="#Inter-Regular-43"/>
     <use xlink:href="#Inter-Regular-6f" transform="translate(72.727295 0)"/>
     <use xlink:href="#Inter-Regular-75" transform="translate(132.386398 0)"/>
     <use xlink:href="#Inter-Regular-6e" transform="translate(190.483002 0)"/>
     <use xlink:href="#Inter-Regular-74" transform="translate(249.005737 0)"/>
     <use xlink:href="#Inter-Regular-20" transform="translate(285.369385 0)"/>
     <use xlink:href="#Inter-Regular-6f" transform="translate(313.494385 0)"/>
     <use xlink:href="#Inter-Regular-66" transform="translate(373.153488 0)"/>
     <use xlink:href="#Inter-Regular-20" transform="translate(409.233032 0)"/>
     <use xlink:href="#Inter-Regular-54" transform="translate(437.358032 0)"/>
     <use xlink:href="#Inter-Regular-69" transform="translate(501.562592 0)"/>
     <use xlink:href="#Inter-Regular-6d" transform="translate(525.28418 0)"/>
     <use xlink:href="#Inter-Regular-65" transform="translate(612.216019 0)"/>
     <use xlink:href="#Inter-Regular-20" transform="translate(670.454666 0)"/>
     <use xlink:href="#Inter-Regular-74" transform="translate(698.579666 0)"/>
     <use xlink:href="#Inter-Regular-6f" transform="translate(734.943314 0)"/>
     <use xlink:href="#Inter-Regular-20" transform="translate(794.602417 0)"/>
     <use xlink:href="#Inter-Regular-4e" transform="translate(822.727417 0)"/>
     <use xlink:href="#Inter-Regular-65" transform="translate(898.01152 0)"/>
     <use xlink:href="#Inter-Regular-61" transform="translate(956.250168 0)"/>
     <use xlink:href="#Inter-Regular-72" transform="translate(1012.642227 0)"/>
     <use xlink:href="#Inter-Regular-65" transform="translate(1049.858139 0)"/>
     <use xlink:href="#Inter-Regular-73" transform="translate(1108.096786 0)"/>
     <use xlink:href="#Inter-Regular-74" transform="translate(1160.369522 0)"/>
     <use xlink:href="#Inter-Regular-20" transform="translate(1196.73317 0)"/>
     <use xlink:href="#Inter-Regular-48" transform="translate(1224.85817 0)"/>
     <use xlink:href="#Inter-Regular-65" transform="translate(1298.863861 0)"/>
     <use xlink:href="#Inter-Regular-61" transform="translate(1357.102509 0)"/>
     <use xlink:href="#Inter-Regular-6c" transform="translate(1413.494568 0)"/>
     <use xlink:href="#Inter-Regular-74" transform="translate(1437.216156 0)"/>
     <use xlink:href="#Inter-Regular-68" transform="translate(1473.579803 0)"/>
     <use xlink:href="#Inter-Regular-20" transform="translate(1532.670731 0)"/>
     <use xlink:href="#Inter-Regular-46" transform="translate(1560.795731 0)"/>
     <use xlink:href="#Inter-Regular-61" transform="translate(1619.46051 0)"/>
     <use xlink:href="#Inter-Regular-63" transform="translate(1675.85257 0)"/>
     <use xlink:href="#Inter-Regular-69" transform="translate(1731.676437 0)"/>
     <use xlink:href="#Inter-Regular-6c" transform="translate(1755.398026 0)"/>
     <use xlink:href="#Inter-Regular-69" transform="translate(1779.119614 0)"/>
     <use xlink:href="#Inter-Regular-74" transform="translate(1802.841202 0)"/>
     <use xlink:href="#Inter-Regular-79" transform="translate(1839.204849 0)"/>
     <use xlink:href="#Inter-Regular-20" transform="translate(1894.886673 0)"/>
     <use xlink:href="#Inter-Regular-66" transform="translate(1923.011673 0)"/>
     <use xlink:href="#Inter-Regular-72" transform="translate(1959.091217 0)"/>
     <use xlink:href="#Inter-Regular-6f" transform="translate(1996.307129 0)"/>
     <use xlink:href="#Inter-Regular-6d" transform="translate(2055.966232 0)"/>
     <use xlink:href="#Inter-Regular-20" transform="translate(2142.898071 0)"/>
     <use xlink:href="#Inter-Regular-74" transform="translate(2171.023071 0)"/>
     <use xlink:href="#Inter-Regular-68" transform="translate(2207.386719 0)"/>
     <use xlink:href="#Inter-Regular-65" transform="translate(2266.477646 0)"/>
     <use xlink:href="#Inter-Regular-20" transform="translate(2324.716293 0)"/>
     <use xlink:href="#Inter-Regular-53" transform="translate(2352.841293 0)"/>
     <use xlink:href="#Inter-Regular-69" transform="translate(2416.61972 0)"/>
     <use xlink:href="#Inter-Regular-74" transform="translate(2440.341309 0)"/>
     <use xlink:href="#Inter-Regular-65" transform="translate(2476.704956 0)"/>
    </g>
   </g>
  </g>
 </g>
 <defs>
  <clipPath id="p4f2f68fe99">
   <rect x="40.132813" y="20.814062" width="418.4035" height="173.08"/>
  </clipPath>
 </defs>
</svg>
