<?xml version="1.0" encoding="utf-8" standalone="no"?>
<!DOCTYPE svg PUBLIC "-//W3C//DTD SVG 1.1//EN"
  "http://www.w3.org/Graphics/SVG/1.1/DTD/svg11.dtd">
<svg xmlns:xlink="http://www.w3.org/1999/xlink" width="471.491875pt" height="230.731562pt" viewBox="0 0 471.491875 230.731562" xmlns="http://www.w3.org/2000/svg" version="1.1">
 <metadata>
  <rdf:RDF xmlns:dc="http://purl.org/dc/elements/1.1/" xmlns:cc="http://creativecommons.org/ns#" xmlns:rdf="http://www.w3.org/1999/02/22-rdf-syntax-ns#">
   <cc:Work>
    <dc:type rdf:resource="http://purl.org/dc/dcmitype/StillImage"/>
    <dc:date>2025-02-15T13:55:52.765199</dc:date>
    <dc:format>image/svg+xml</dc:format>
    <dc:creator>
     <cc:Agent>
      <dc:title>Matplotlib v3.10.0, https://matplotlib.org/</dc:title>
     </cc:Agent>
    </dc:creator>
   </cc:Work>
  </rdf:RDF>
 </metadata>
 <defs>
  <style type="text/css">*{stroke-linejoin: round; stroke-linecap: butt}</style>
 </defs>
 <g id="figure_1">
  <g id="patch_1">
   <path d="M 0 230.731562 
L 471.491875 230.731562 
L 471.491875 0 
L 0 0 
z
" style="fill: #ffffff"/>
  </g>
  <g id="axes_1">
   <g id="patch_2">
    <path d="M 38.414062 193.894062 
L 454.959063 193.894062 
L 454.959063 20.814062 
L 38.414062 20.814062 
z
" style="fill: #ffffff"/>
   </g>
   <g id="patch_3">
    <path d="M 38.414062 193.894062 
L 46.323066 193.894062 
L 46.323066 144.442634 
L 38.414062 144.442634 
z
" clip-path="url(#pcc7800a0c5)" style="fill: #ffb81c; stroke: #ffffff; stroke-linejoin: miter"/>
   </g>
   <g id="patch_4">
    <path d="M 46.323066 193.894062 
L 54.23207 193.894062 
L 54.23207 29.055967 
L 46.323066 29.055967 
z
" clip-path="url(#pcc7800a0c5)" style="fill: #ffb81c; stroke: #ffffff; stroke-linejoin: miter"/>
   </g>
   <g id="patch_5">
    <path d="M 54.23207 193.894062 
L 62.141074 193.894062 
L 62.141074 177.410253 
L 54.23207 177.410253 
z
" clip-path="url(#pcc7800a0c5)" style="fill: #ffb81c; stroke: #ffffff; stroke-linejoin: miter"/>
   </g>
   <g id="patch_6">
    <path d="M 62.141074 193.894062 
L 70.050077 193.894062 
L 70.050077 45.539777 
L 62.141074 45.539777 
z
" clip-path="url(#pcc7800a0c5)" style="fill: #ffb81c; stroke: #ffffff; stroke-linejoin: miter"/>
   </g>
   <g id="patch_7">
    <path d="M 70.050077 193.894062 
L 77.959081 193.894062 
L 77.959081 177.410253 
L 70.050077 177.410253 
z
" clip-path="url(#pcc7800a0c5)" style="fill: #ffb81c; stroke: #ffffff; stroke-linejoin: miter"/>
   </g>
   <g id="patch_8">
    <path d="M 77.959081 193.894062 
L 85.868085 193.894062 
L 85.868085 160.926443 
L 77.959081 160.926443 
z
" clip-path="url(#pcc7800a0c5)" style="fill: #ffb81c; stroke: #ffffff; stroke-linejoin: miter"/>
   </g>
   <g id="patch_9">
    <path d="M 85.868085 193.894062 
L 93.777089 193.894062 
L 93.777089 94.991205 
L 85.868085 94.991205 
z
" clip-path="url(#pcc7800a0c5)" style="fill: #ffb81c; stroke: #ffffff; stroke-linejoin: miter"/>
   </g>
   <g id="patch_10">
    <path d="M 93.777089 193.894062 
L 101.686092 193.894062 
L 101.686092 78.507396 
L 93.777089 78.507396 
z
" clip-path="url(#pcc7800a0c5)" style="fill: #ffb81c; stroke: #ffffff; stroke-linejoin: miter"/>
   </g>
   <g id="patch_11">
    <path d="M 101.686092 193.894062 
L 109.595096 193.894062 
L 109.595096 144.442634 
L 101.686092 144.442634 
z
" clip-path="url(#pcc7800a0c5)" style="fill: #ffb81c; stroke: #ffffff; stroke-linejoin: miter"/>
   </g>
   <g id="patch_12">
    <path d="M 109.595096 193.894062 
L 117.5041 193.894062 
L 117.5041 144.442634 
L 109.595096 144.442634 
z
" clip-path="url(#pcc7800a0c5)" style="fill: #ffb81c; stroke: #ffffff; stroke-linejoin: miter"/>
   </g>
   <g id="patch_13">
    <path d="M 117.5041 193.894062 
L 125.413103 193.894062 
L 125.413103 78.507396 
L 117.5041 78.507396 
z
" clip-path="url(#pcc7800a0c5)" style="fill: #ffb81c; stroke: #ffffff; stroke-linejoin: miter"/>
   </g>
   <g id="patch_14">
    <path d="M 125.413103 193.894062 
L 133.322107 193.894062 
L 133.322107 144.442634 
L 125.413103 144.442634 
z
" clip-path="url(#pcc7800a0c5)" style="fill: #ffb81c; stroke: #ffffff; stroke-linejoin: miter"/>
   </g>
   <g id="patch_15">
    <path d="M 133.322107 193.894062 
L 141.231111 193.894062 
L 141.231111 177.410253 
L 133.322107 177.410253 
z
" clip-path="url(#pcc7800a0c5)" style="fill: #ffb81c; stroke: #ffffff; stroke-linejoin: miter"/>
   </g>
   <g id="patch_16">
    <path d="M 141.231111 193.894062 
L 149.140115 193.894062 
L 149.140115 144.442634 
L 141.231111 144.442634 
z
" clip-path="url(#pcc7800a0c5)" style="fill: #ffb81c; stroke: #ffffff; stroke-linejoin: miter"/>
   </g>
   <g id="patch_17">
    <path d="M 149.140115 193.894062 
L 157.049118 193.894062 
L 157.049118 160.926443 
L 149.140115 160.926443 
z
" clip-path="url(#pcc7800a0c5)" style="fill: #ffb81c; stroke: #ffffff; stroke-linejoin: miter"/>
   </g>
   <g id="patch_18">
    <path d="M 157.049118 193.894062 
L 164.958122 193.894062 
L 164.958122 177.410253 
L 157.049118 177.410253 
z
" clip-path="url(#pcc7800a0c5)" style="fill: #ffb81c; stroke: #ffffff; stroke-linejoin: miter"/>
   </g>
   <g id="patch_19">
    <path d="M 164.958122 193.894062 
L 172.867126 193.894062 
L 172.867126 144.442634 
L 164.958122 144.442634 
z
" clip-path="url(#pcc7800a0c5)" style="fill: #ffb81c; stroke: #ffffff; stroke-linejoin: miter"/>
   </g>
   <g id="patch_20">
    <path d="M 172.867126 193.894062 
L 180.77613 193.894062 
L 180.77613 193.894062 
L 172.867126 193.894062 
z
" clip-path="url(#pcc7800a0c5)" style="fill: #ffb81c; stroke: #ffffff; stroke-linejoin: miter"/>
   </g>
   <g id="patch_21">
    <path d="M 180.77613 193.894062 
L 188.685133 193.894062 
L 188.685133 144.442634 
L 180.77613 144.442634 
z
" clip-path="url(#pcc7800a0c5)" style="fill: #ffb81c; stroke: #ffffff; stroke-linejoin: miter"/>
   </g>
   <g id="patch_22">
    <path d="M 188.685133 193.894062 
L 196.594137 193.894062 
L 196.594137 193.894062 
L 188.685133 193.894062 
z
" clip-path="url(#pcc7800a0c5)" style="fill: #ffb81c; stroke: #ffffff; stroke-linejoin: miter"/>
   </g>
   <g id="patch_23">
    <path d="M 196.594137 193.894062 
L 204.503141 193.894062 
L 204.503141 177.410253 
L 196.594137 177.410253 
z
" clip-path="url(#pcc7800a0c5)" style="fill: #ffb81c; stroke: #ffffff; stroke-linejoin: miter"/>
   </g>
   <g id="patch_24">
    <path d="M 204.503141 193.894062 
L 212.412144 193.894062 
L 212.412144 160.926443 
L 204.503141 160.926443 
z
" clip-path="url(#pcc7800a0c5)" style="fill: #ffb81c; stroke: #ffffff; stroke-linejoin: miter"/>
   </g>
   <g id="patch_25">
    <path d="M 212.412144 193.894062 
L 220.321148 193.894062 
L 220.321148 177.410253 
L 212.412144 177.410253 
z
" clip-path="url(#pcc7800a0c5)" style="fill: #ffb81c; stroke: #ffffff; stroke-linejoin: miter"/>
   </g>
   <g id="patch_26">
    <path d="M 220.321148 193.894062 
L 228.230152 193.894062 
L 228.230152 193.894062 
L 220.321148 193.894062 
z
" clip-path="url(#pcc7800a0c5)" style="fill: #ffb81c; stroke: #ffffff; stroke-linejoin: miter"/>
   </g>
   <g id="patch_27">
    <path d="M 228.230152 193.894062 
L 236.139156 193.894062 
L 236.139156 177.410253 
L 228.230152 177.410253 
z
" clip-path="url(#pcc7800a0c5)" style="fill: #ffb81c; stroke: #ffffff; stroke-linejoin: miter"/>
   </g>
   <g id="patch_28">
    <path d="M 236.139156 193.894062 
L 244.048159 193.894062 
L 244.048159 177.410253 
L 236.139156 177.410253 
z
" clip-path="url(#pcc7800a0c5)" style="fill: #ffb81c; stroke: #ffffff; stroke-linejoin: miter"/>
   </g>
   <g id="patch_29">
    <path d="M 244.048159 193.894062 
L 251.957163 193.894062 
L 251.957163 193.894062 
L 244.048159 193.894062 
z
" clip-path="url(#pcc7800a0c5)" style="fill: #ffb81c; stroke: #ffffff; stroke-linejoin: miter"/>
   </g>
   <g id="patch_30">
    <path d="M 251.957163 193.894062 
L 259.866167 193.894062 
L 259.866167 177.410253 
L 251.957163 177.410253 
z
" clip-path="url(#pcc7800a0c5)" style="fill: #ffb81c; stroke: #ffffff; stroke-linejoin: miter"/>
   </g>
   <g id="patch_31">
    <path d="M 259.866167 193.894062 
L 267.775171 193.894062 
L 267.775171 193.894062 
L 259.866167 193.894062 
z
" clip-path="url(#pcc7800a0c5)" style="fill: #ffb81c; stroke: #ffffff; stroke-linejoin: miter"/>
   </g>
   <g id="patch_32">
    <path d="M 267.775171 193.894062 
L 275.684174 193.894062 
L 275.684174 193.894062 
L 267.775171 193.894062 
z
" clip-path="url(#pcc7800a0c5)" style="fill: #ffb81c; stroke: #ffffff; stroke-linejoin: miter"/>
   </g>
   <g id="patch_33">
    <path d="M 275.684174 193.894062 
L 283.593178 193.894062 
L 283.593178 193.894062 
L 275.684174 193.894062 
z
" clip-path="url(#pcc7800a0c5)" style="fill: #ffb81c; stroke: #ffffff; stroke-linejoin: miter"/>
   </g>
   <g id="patch_34">
    <path d="M 283.593178 193.894062 
L 291.502182 193.894062 
L 291.502182 193.894062 
L 283.593178 193.894062 
z
" clip-path="url(#pcc7800a0c5)" style="fill: #ffb81c; stroke: #ffffff; stroke-linejoin: miter"/>
   </g>
   <g id="patch_35">
    <path d="M 291.502182 193.894062 
L 299.411185 193.894062 
L 299.411185 193.894062 
L 291.502182 193.894062 
z
" clip-path="url(#pcc7800a0c5)" style="fill: #ffb81c; stroke: #ffffff; stroke-linejoin: miter"/>
   </g>
   <g id="patch_36">
    <path d="M 299.411185 193.894062 
L 307.320189 193.894062 
L 307.320189 193.894062 
L 299.411185 193.894062 
z
" clip-path="url(#pcc7800a0c5)" style="fill: #ffb81c; stroke: #ffffff; stroke-linejoin: miter"/>
   </g>
   <g id="patch_37">
    <path d="M 307.320189 193.894062 
L 315.229193 193.894062 
L 315.229193 193.894062 
L 307.320189 193.894062 
z
" clip-path="url(#pcc7800a0c5)" style="fill: #ffb81c; stroke: #ffffff; stroke-linejoin: miter"/>
   </g>
   <g id="patch_38">
    <path d="M 315.229193 193.894062 
L 323.138197 193.894062 
L 323.138197 193.894062 
L 315.229193 193.894062 
z
" clip-path="url(#pcc7800a0c5)" style="fill: #ffb81c; stroke: #ffffff; stroke-linejoin: miter"/>
   </g>
   <g id="patch_39">
    <path d="M 323.138197 193.894062 
L 331.0472 193.894062 
L 331.0472 193.894062 
L 323.138197 193.894062 
z
" clip-path="url(#pcc7800a0c5)" style="fill: #ffb81c; stroke: #ffffff; stroke-linejoin: miter"/>
   </g>
   <g id="patch_40">
    <path d="M 331.0472 193.894062 
L 338.956204 193.894062 
L 338.956204 193.894062 
L 331.0472 193.894062 
z
" clip-path="url(#pcc7800a0c5)" style="fill: #ffb81c; stroke: #ffffff; stroke-linejoin: miter"/>
   </g>
   <g id="patch_41">
    <path d="M 338.956204 193.894062 
L 346.865208 193.894062 
L 346.865208 193.894062 
L 338.956204 193.894062 
z
" clip-path="url(#pcc7800a0c5)" style="fill: #ffb81c; stroke: #ffffff; stroke-linejoin: miter"/>
   </g>
   <g id="patch_42">
    <path d="M 346.865208 193.894062 
L 354.774211 193.894062 
L 354.774211 193.894062 
L 346.865208 193.894062 
z
" clip-path="url(#pcc7800a0c5)" style="fill: #ffb81c; stroke: #ffffff; stroke-linejoin: miter"/>
   </g>
   <g id="patch_43">
    <path d="M 354.774211 193.894062 
L 362.683215 193.894062 
L 362.683215 193.894062 
L 354.774211 193.894062 
z
" clip-path="url(#pcc7800a0c5)" style="fill: #ffb81c; stroke: #ffffff; stroke-linejoin: miter"/>
   </g>
   <g id="patch_44">
    <path d="M 362.683215 193.894062 
L 370.592219 193.894062 
L 370.592219 193.894062 
L 362.683215 193.894062 
z
" clip-path="url(#pcc7800a0c5)" style="fill: #ffb81c; stroke: #ffffff; stroke-linejoin: miter"/>
   </g>
   <g id="patch_45">
    <path d="M 370.592219 193.894062 
L 378.501223 193.894062 
L 378.501223 193.894062 
L 370.592219 193.894062 
z
" clip-path="url(#pcc7800a0c5)" style="fill: #ffb81c; stroke: #ffffff; stroke-linejoin: miter"/>
   </g>
   <g id="patch_46">
    <path d="M 378.501223 193.894062 
L 386.410226 193.894062 
L 386.410226 193.894062 
L 378.501223 193.894062 
z
" clip-path="url(#pcc7800a0c5)" style="fill: #ffb81c; stroke: #ffffff; stroke-linejoin: miter"/>
   </g>
   <g id="patch_47">
    <path d="M 386.410226 193.894062 
L 394.31923 193.894062 
L 394.31923 193.894062 
L 386.410226 193.894062 
z
" clip-path="url(#pcc7800a0c5)" style="fill: #ffb81c; stroke: #ffffff; stroke-linejoin: miter"/>
   </g>
   <g id="patch_48">
    <path d="M 394.31923 193.894062 
L 402.228234 193.894062 
L 402.228234 177.410253 
L 394.31923 177.410253 
z
" clip-path="url(#pcc7800a0c5)" style="fill: #ffb81c; stroke: #ffffff; stroke-linejoin: miter"/>
   </g>
   <g id="patch_49">
    <path d="M 402.228234 193.894062 
L 410.137238 193.894062 
L 410.137238 177.410253 
L 402.228234 177.410253 
z
" clip-path="url(#pcc7800a0c5)" style="fill: #ffb81c; stroke: #ffffff; stroke-linejoin: miter"/>
   </g>
   <g id="patch_50">
    <path d="M 410.137238 193.894062 
L 418.046241 193.894062 
L 418.046241 193.894062 
L 410.137238 193.894062 
z
" clip-path="url(#pcc7800a0c5)" style="fill: #ffb81c; stroke: #ffffff; stroke-linejoin: miter"/>
   </g>
   <g id="patch_51">
    <path d="M 418.046241 193.894062 
L 425.955245 193.894062 
L 425.955245 193.894062 
L 418.046241 193.894062 
z
" clip-path="url(#pcc7800a0c5)" style="fill: #ffb81c; stroke: #ffffff; stroke-linejoin: miter"/>
   </g>
   <g id="patch_52">
    <path d="M 425.955245 193.894062 
L 433.864249 193.894062 
L 433.864249 193.894062 
L 425.955245 193.894062 
z
" clip-path="url(#pcc7800a0c5)" style="fill: #ffb81c; stroke: #ffffff; stroke-linejoin: miter"/>
   </g>
   <g id="patch_53">
    <path d="M 433.864249 193.894062 
L 441.773252 193.894062 
L 441.773252 193.894062 
L 433.864249 193.894062 
z
" clip-path="url(#pcc7800a0c5)" style="fill: #ffb81c; stroke: #ffffff; stroke-linejoin: miter"/>
   </g>
   <g id="patch_54">
    <path d="M 441.773252 193.894062 
L 449.682256 193.894062 
L 449.682256 193.894062 
L 441.773252 193.894062 
z
" clip-path="url(#pcc7800a0c5)" style="fill: #ffb81c; stroke: #ffffff; stroke-linejoin: miter"/>
   </g>
   <g id="patch_55">
    <path d="M 449.682256 193.894062 
L 457.59126 193.894062 
L 457.59126 177.410253 
L 449.682256 177.410253 
z
" clip-path="url(#pcc7800a0c5)" style="fill: #ffb81c; stroke: #ffffff; stroke-linejoin: miter"/>
   </g>
   <g id="patch_56">
    <path d="M 457.59126 193.894062 
L 465.500264 193.894062 
L 465.500264 193.894062 
L 457.59126 193.894062 
z
" clip-path="url(#pcc7800a0c5)" style="fill: #ffb81c; stroke: #ffffff; stroke-linejoin: miter"/>
   </g>
   <g id="patch_57">
    <path d="M 465.500264 193.894062 
L 473.409267 193.894062 
L 473.409267 193.894062 
L 465.500264 193.894062 
z
" clip-path="url(#pcc7800a0c5)" style="fill: #ffb81c; stroke: #ffffff; stroke-linejoin: miter"/>
   </g>
   <g id="patch_58">
    <path d="M 473.409267 193.894062 
L 481.318271 193.894062 
L 481.318271 193.894062 
L 473.409267 193.894062 
z
" clip-path="url(#pcc7800a0c5)" style="fill: #ffb81c; stroke: #ffffff; stroke-linejoin: miter"/>
   </g>
   <g id="patch_59">
    <path d="M 481.318271 193.894062 
L 489.227275 193.894062 
L 489.227275 193.894062 
L 481.318271 193.894062 
z
" clip-path="url(#pcc7800a0c5)" style="fill: #ffb81c; stroke: #ffffff; stroke-linejoin: miter"/>
   </g>
   <g id="patch_60">
    <path d="M 489.227275 193.894062 
L 497.136279 193.894062 
L 497.136279 177.410253 
L 489.227275 177.410253 
z
" clip-path="url(#pcc7800a0c5)" style="fill: #ffb81c; stroke: #ffffff; stroke-linejoin: miter"/>
   </g>
   <g id="patch_61">
    <path d="M 497.136279 193.894062 
L 505.045282 193.894062 
L 505.045282 193.894062 
L 497.136279 193.894062 
z
" clip-path="url(#pcc7800a0c5)" style="fill: #ffb81c; stroke: #ffffff; stroke-linejoin: miter"/>
   </g>
   <g id="patch_62">
    <path d="M 505.045282 193.894062 
L 512.954286 193.894062 
L 512.954286 177.410253 
L 505.045282 177.410253 
z
" clip-path="url(#pcc7800a0c5)" style="fill: #ffb81c; stroke: #ffffff; stroke-linejoin: miter"/>
   </g>
   <g id="matplotlib.axis_1">
    <g id="xtick_1">
     <g id="line2d_1">
      <defs>
       <path id="m4a5cca065f" d="M 0 0 
L 0 3.5 
" style="stroke: #737373; stroke-width: 0.8"/>
      </defs>
      <g>
       <use xlink:href="#m4a5cca065f" x="38.414062" y="193.894062" style="fill: #737373; stroke: #737373; stroke-width: 0.8"/>
      </g>
     </g>
     <g id="text_1">
      <!-- 0 -->
      <g style="fill: #737373" transform="translate(35.289062 208.1675) scale(0.1 -0.1)">
       <defs>
        <path id="Inter-Regular-30" d="M 2000 -64 
Q 1486 -64 1125 217 
Q 764 498 573 1033 
Q 382 1568 382 2327 
Q 382 3082 574 3617 
Q 766 4152 1128 4435 
Q 1491 4718 2000 4718 
Q 2509 4718 2871 4435 
Q 3234 4152 3426 3617 
Q 3618 3082 3618 2327 
Q 3618 1568 3427 1033 
Q 3236 498 2875 217 
Q 2514 -64 2000 -64 
z
M 2000 436 
Q 2509 436 2791 927 
Q 3073 1418 3073 2327 
Q 3073 2932 2944 3357 
Q 2816 3782 2576 4004 
Q 2336 4227 2000 4227 
Q 1496 4227 1211 3730 
Q 927 3234 927 2327 
Q 927 1723 1054 1300 
Q 1182 877 1421 656 
Q 1661 436 2000 436 
z
" transform="scale(0.015625)"/>
       </defs>
       <use xlink:href="#Inter-Regular-30"/>
      </g>
     </g>
    </g>
    <g id="xtick_2">
     <g id="line2d_2">
      <g>
       <use xlink:href="#m4a5cca065f" x="90.482188" y="193.894062" style="fill: #737373; stroke: #737373; stroke-width: 0.8"/>
      </g>
     </g>
     <g id="text_2">
      <!-- 100 -->
      <g style="fill: #737373" transform="translate(81.909531 208.1675) scale(0.1 -0.1)">
       <defs>
        <path id="Inter-Regular-31" d="M 2118 4655 
L 2118 0 
L 1555 0 
L 1555 4064 
L 1527 4064 
L 391 3309 
L 391 3882 
L 1555 4655 
L 2118 4655 
z
" transform="scale(0.015625)"/>
       </defs>
       <use xlink:href="#Inter-Regular-31"/>
       <use xlink:href="#Inter-Regular-30" transform="translate(46.448868 0)"/>
       <use xlink:href="#Inter-Regular-30" transform="translate(108.948883 0)"/>
      </g>
     </g>
    </g>
    <g id="xtick_3">
     <g id="line2d_3">
      <g>
       <use xlink:href="#m4a5cca065f" x="142.550313" y="193.894062" style="fill: #737373; stroke: #737373; stroke-width: 0.8"/>
      </g>
     </g>
     <g id="text_3">
      <!-- 200 -->
      <g style="fill: #737373" transform="translate(133.274531 208.1675) scale(0.1 -0.1)">
       <defs>
        <path id="Inter-Regular-32" d="M 482 0 
L 482 409 
L 2018 2091 
Q 2289 2386 2464 2605 
Q 2639 2825 2724 3019 
Q 2809 3214 2809 3427 
Q 2809 3673 2692 3852 
Q 2575 4032 2373 4129 
Q 2171 4227 1918 4227 
Q 1650 4227 1451 4117 
Q 1252 4007 1144 3809 
Q 1036 3611 1036 3345 
L 500 3345 
Q 500 3755 688 4064 
Q 877 4373 1203 4545 
Q 1530 4718 1936 4718 
Q 2346 4718 2661 4545 
Q 2977 4373 3156 4079 
Q 3336 3786 3336 3427 
Q 3336 3170 3244 2926 
Q 3152 2682 2926 2383 
Q 2700 2084 2300 1655 
L 1255 536 
L 1255 500 
L 3418 500 
L 3418 0 
L 482 0 
z
" transform="scale(0.015625)"/>
       </defs>
       <use xlink:href="#Inter-Regular-32"/>
       <use xlink:href="#Inter-Regular-30" transform="translate(60.511383 0)"/>
       <use xlink:href="#Inter-Regular-30" transform="translate(123.011398 0)"/>
      </g>
     </g>
    </g>
    <g id="xtick_4">
     <g id="line2d_4">
      <g>
       <use xlink:href="#m4a5cca065f" x="194.618438" y="193.894062" style="fill: #737373; stroke: #737373; stroke-width: 0.8"/>
      </g>
     </g>
     <g id="text_4">
      <!-- 300 -->
      <g style="fill: #737373" transform="translate(185.186406 208.1675) scale(0.1 -0.1)">
       <defs>
        <path id="Inter-Regular-33" d="M 2055 -64 
Q 1605 -64 1253 90 
Q 902 245 696 521 
Q 491 798 473 1164 
L 1046 1164 
Q 1064 939 1200 776 
Q 1336 614 1556 525 
Q 1777 436 2046 436 
Q 2346 436 2577 540 
Q 2809 645 2941 831 
Q 3073 1018 3073 1264 
Q 3073 1520 2945 1717 
Q 2818 1914 2572 2025 
Q 2327 2136 1973 2136 
L 1600 2136 
L 1600 2636 
L 1973 2636 
Q 2250 2636 2460 2736 
Q 2671 2836 2790 3018 
Q 2909 3200 2909 3445 
Q 2909 3682 2804 3857 
Q 2700 4032 2510 4129 
Q 2321 4227 2064 4227 
Q 1823 4227 1610 4139 
Q 1398 4052 1264 3887 
Q 1130 3723 1118 3491 
L 573 3491 
Q 586 3857 793 4133 
Q 1000 4409 1335 4563 
Q 1671 4718 2073 4718 
Q 2505 4718 2814 4544 
Q 3123 4370 3289 4086 
Q 3455 3802 3455 3473 
Q 3455 3080 3249 2802 
Q 3043 2525 2691 2418 
L 2691 2382 
Q 3132 2309 3379 2008 
Q 3627 1707 3627 1264 
Q 3627 884 3421 583 
Q 3216 282 2861 109 
Q 2507 -64 2055 -64 
z
" transform="scale(0.015625)"/>
       </defs>
       <use xlink:href="#Inter-Regular-33"/>
       <use xlink:href="#Inter-Regular-30" transform="translate(63.636383 0)"/>
       <use xlink:href="#Inter-Regular-30" transform="translate(126.136398 0)"/>
      </g>
     </g>
    </g>
    <g id="xtick_5">
     <g id="line2d_5">
      <g>
       <use xlink:href="#m4a5cca065f" x="246.686563" y="193.894062" style="fill: #737373; stroke: #737373; stroke-width: 0.8"/>
      </g>
     </g>
     <g id="text_5">
      <!-- 400 -->
      <g style="fill: #737373" transform="translate(237.226406 208.1675) scale(0.1 -0.1)">
       <defs>
        <path id="Inter-Regular-34" d="M 373 955 
L 373 1418 
L 2418 4655 
L 2755 4655 
L 2755 3936 
L 2527 3936 
L 982 1491 
L 982 1455 
L 3736 1455 
L 3736 955 
L 373 955 
z
M 2564 0 
L 2564 1095 
L 2564 1311 
L 2564 4655 
L 3100 4655 
L 3100 0 
L 2564 0 
z
" transform="scale(0.015625)"/>
       </defs>
       <use xlink:href="#Inter-Regular-34"/>
       <use xlink:href="#Inter-Regular-30" transform="translate(64.204559 0)"/>
       <use xlink:href="#Inter-Regular-30" transform="translate(126.704575 0)"/>
      </g>
     </g>
    </g>
    <g id="xtick_6">
     <g id="line2d_6">
      <g>
       <use xlink:href="#m4a5cca065f" x="298.754688" y="193.894062" style="fill: #737373; stroke: #737373; stroke-width: 0.8"/>
      </g>
     </g>
     <g id="text_6">
      <!-- 500 -->
      <g style="fill: #737373" transform="translate(289.464844 208.1675) scale(0.1 -0.1)">
       <defs>
        <path id="Inter-Regular-35" d="M 1936 -64 
Q 1536 -64 1216 95 
Q 896 255 702 532 
Q 509 809 491 1164 
L 1036 1164 
Q 1068 848 1324 642 
Q 1580 436 1936 436 
Q 2223 436 2447 570 
Q 2671 705 2799 940 
Q 2927 1175 2927 1473 
Q 2927 1777 2794 2017 
Q 2661 2257 2429 2395 
Q 2198 2534 1900 2536 
Q 1686 2539 1461 2472 
Q 1236 2405 1091 2300 
L 564 2364 
L 846 4655 
L 3264 4655 
L 3264 4155 
L 1318 4155 
L 1155 2782 
L 1182 2782 
Q 1325 2895 1541 2970 
Q 1757 3045 1991 3045 
Q 2418 3045 2753 2842 
Q 3089 2639 3281 2286 
Q 3473 1934 3473 1482 
Q 3473 1036 3274 687 
Q 3075 339 2727 137 
Q 2380 -64 1936 -64 
z
" transform="scale(0.015625)"/>
       </defs>
       <use xlink:href="#Inter-Regular-35"/>
       <use xlink:href="#Inter-Regular-30" transform="translate(60.795471 0)"/>
       <use xlink:href="#Inter-Regular-30" transform="translate(123.295486 0)"/>
      </g>
     </g>
    </g>
    <g id="xtick_7">
     <g id="line2d_7">
      <g>
       <use xlink:href="#m4a5cca065f" x="350.822813" y="193.894062" style="fill: #737373; stroke: #737373; stroke-width: 0.8"/>
      </g>
     </g>
     <g id="text_7">
      <!-- 600 -->
      <g style="fill: #737373" transform="translate(341.454844 208.1675) scale(0.1 -0.1)">
       <defs>
        <path id="Inter-Regular-36" d="M 2027 -64 
Q 1741 -59 1454 45 
Q 1168 150 932 399 
Q 696 648 552 1074 
Q 409 1500 409 2145 
Q 409 2764 525 3242 
Q 641 3720 861 4048 
Q 1082 4377 1394 4547 
Q 1707 4718 2100 4718 
Q 2491 4718 2796 4562 
Q 3102 4407 3295 4129 
Q 3489 3852 3546 3491 
L 2991 3491 
Q 2914 3805 2691 4011 
Q 2468 4218 2100 4218 
Q 1559 4218 1249 3747 
Q 939 3277 936 2427 
L 973 2427 
Q 1100 2620 1276 2757 
Q 1452 2895 1666 2970 
Q 1880 3045 2118 3045 
Q 2518 3045 2850 2846 
Q 3182 2648 3382 2299 
Q 3582 1950 3582 1500 
Q 3582 1068 3389 710 
Q 3196 352 2847 142 
Q 2498 -68 2027 -64 
z
M 2027 436 
Q 2314 436 2542 579 
Q 2771 723 2903 964 
Q 3036 1205 3036 1500 
Q 3036 1789 2908 2026 
Q 2780 2264 2556 2404 
Q 2332 2545 2046 2545 
Q 1830 2545 1643 2460 
Q 1457 2375 1317 2227 
Q 1177 2080 1097 1890 
Q 1018 1700 1018 1491 
Q 1018 1214 1149 973 
Q 1280 732 1508 584 
Q 1736 436 2027 436 
z
" transform="scale(0.015625)"/>
       </defs>
       <use xlink:href="#Inter-Regular-36"/>
       <use xlink:href="#Inter-Regular-30" transform="translate(62.357971 0)"/>
       <use xlink:href="#Inter-Regular-30" transform="translate(124.857986 0)"/>
      </g>
     </g>
    </g>
    <g id="xtick_8">
     <g id="line2d_8">
      <g>
       <use xlink:href="#m4a5cca065f" x="402.890938" y="193.894062" style="fill: #737373; stroke: #737373; stroke-width: 0.8"/>
      </g>
     </g>
     <g id="text_8">
      <!-- 700 -->
      <g style="fill: #737373" transform="translate(393.785469 208.1675) scale(0.1 -0.1)">
       <defs>
        <path id="Inter-Regular-37" d="M 627 0 
L 2709 4118 
L 2709 4155 
L 309 4155 
L 309 4655 
L 3291 4655 
L 3291 4127 
L 1218 0 
L 627 0 
z
" transform="scale(0.015625)"/>
       </defs>
       <use xlink:href="#Inter-Regular-37"/>
       <use xlink:href="#Inter-Regular-30" transform="translate(57.10228 0)"/>
       <use xlink:href="#Inter-Regular-30" transform="translate(119.602295 0)"/>
      </g>
     </g>
    </g>
    <g id="xtick_9">
     <g id="line2d_9">
      <g>
       <use xlink:href="#m4a5cca065f" x="454.959063" y="193.894062" style="fill: #737373; stroke: #737373; stroke-width: 0.8"/>
      </g>
     </g>
     <g id="text_9">
      <!-- 800 -->
      <g style="fill: #737373" transform="translate(445.62625 208.1675) scale(0.1 -0.1)">
       <defs>
        <path id="Inter-Regular-38" d="M 1973 -64 
Q 1505 -64 1147 103 
Q 789 270 589 564 
Q 389 859 391 1236 
Q 389 1532 507 1783 
Q 625 2034 830 2203 
Q 1036 2373 1291 2418 
L 1291 2445 
Q 957 2532 759 2821 
Q 561 3111 564 3482 
Q 561 3836 743 4115 
Q 925 4395 1244 4556 
Q 1564 4718 1973 4718 
Q 2377 4718 2695 4556 
Q 3014 4395 3197 4115 
Q 3380 3836 3382 3482 
Q 3380 3111 3181 2821 
Q 2982 2532 2655 2445 
L 2655 2418 
Q 2907 2373 3109 2203 
Q 3311 2034 3431 1783 
Q 3552 1532 3555 1236 
Q 3552 859 3351 564 
Q 3150 270 2794 103 
Q 2439 -64 1973 -64 
z
M 1973 436 
Q 2289 436 2518 538 
Q 2748 641 2873 827 
Q 2998 1014 3000 1264 
Q 2998 1527 2864 1729 
Q 2730 1932 2499 2048 
Q 2268 2164 1973 2164 
Q 1675 2164 1442 2048 
Q 1209 1932 1076 1729 
Q 943 1527 946 1264 
Q 943 1014 1067 827 
Q 1191 641 1423 538 
Q 1655 436 1973 436 
z
M 1973 2645 
Q 2223 2645 2417 2745 
Q 2611 2845 2722 3025 
Q 2834 3205 2836 3445 
Q 2834 3682 2725 3858 
Q 2616 4034 2423 4130 
Q 2230 4227 1973 4227 
Q 1711 4227 1516 4130 
Q 1321 4034 1214 3858 
Q 1107 3682 1109 3445 
Q 1107 3205 1217 3025 
Q 1327 2845 1522 2745 
Q 1718 2645 1973 2645 
z
" transform="scale(0.015625)"/>
       </defs>
       <use xlink:href="#Inter-Regular-38"/>
       <use xlink:href="#Inter-Regular-30" transform="translate(61.647736 0)"/>
       <use xlink:href="#Inter-Regular-30" transform="translate(124.147751 0)"/>
      </g>
     </g>
    </g>
    <g id="text_10">
     <!-- Travel time (minutes) -->
     <g style="fill: #737373" transform="translate(196.509219 221.48625) scale(0.1 -0.1)">
      <defs>
       <path id="Inter-Regular-54" d="M 309 4155 
L 309 4655 
L 3800 4655 
L 3800 4155 
L 2336 4155 
L 2336 0 
L 1773 0 
L 1773 4155 
L 309 4155 
z
" transform="scale(0.015625)"/>
       <path id="Inter-Regular-72" d="M 491 0 
L 491 3491 
L 1009 3491 
L 1009 2964 
L 1046 2964 
Q 1141 3223 1391 3384 
Q 1641 3545 1955 3545 
Q 2014 3545 2102 3543 
Q 2191 3541 2236 3536 
L 2236 2991 
Q 2209 2998 2112 3012 
Q 2016 3027 1909 3027 
Q 1655 3027 1456 2921 
Q 1257 2816 1142 2630 
Q 1027 2445 1027 2209 
L 1027 0 
L 491 0 
z
" transform="scale(0.015625)"/>
       <path id="Inter-Regular-61" d="M 1518 -82 
Q 1186 -82 916 44 
Q 646 170 486 410 
Q 327 650 327 991 
Q 327 1291 445 1478 
Q 564 1666 761 1773 
Q 959 1880 1199 1933 
Q 1439 1986 1682 2018 
Q 2000 2059 2199 2080 
Q 2398 2102 2490 2154 
Q 2582 2207 2582 2336 
L 2582 2355 
Q 2582 2691 2399 2877 
Q 2216 3064 1846 3064 
Q 1461 3064 1243 2895 
Q 1025 2727 936 2536 
L 427 2718 
Q 564 3036 792 3214 
Q 1021 3393 1292 3464 
Q 1564 3536 1827 3536 
Q 1996 3536 2215 3496 
Q 2434 3457 2640 3334 
Q 2846 3211 2982 2963 
Q 3118 2716 3118 2300 
L 3118 0 
L 2582 0 
L 2582 473 
L 2555 473 
Q 2500 359 2373 229 
Q 2246 100 2034 9 
Q 1823 -82 1518 -82 
z
M 1600 400 
Q 1918 400 2137 525 
Q 2357 650 2469 847 
Q 2582 1045 2582 1264 
L 2582 1755 
Q 2548 1714 2433 1681 
Q 2318 1648 2169 1624 
Q 2021 1600 1881 1583 
Q 1741 1566 1655 1555 
Q 1446 1527 1265 1467 
Q 1084 1407 974 1287 
Q 864 1168 864 964 
Q 864 684 1072 542 
Q 1280 400 1600 400 
z
" transform="scale(0.015625)"/>
       <path id="Inter-Regular-76" d="M 3346 3491 
L 2055 0 
L 1509 0 
L 218 3491 
L 800 3491 
L 1764 709 
L 1800 709 
L 2764 3491 
L 3346 3491 
z
" transform="scale(0.015625)"/>
       <path id="Inter-Regular-65" d="M 1955 -73 
Q 1450 -73 1085 151 
Q 721 375 524 778 
Q 327 1182 327 1718 
Q 327 2255 524 2665 
Q 721 3075 1074 3305 
Q 1427 3536 1900 3536 
Q 2173 3536 2439 3445 
Q 2705 3355 2923 3151 
Q 3141 2948 3270 2614 
Q 3400 2280 3400 1791 
L 3400 1564 
L 709 1564 
L 709 2027 
L 2855 2027 
Q 2855 2323 2738 2554 
Q 2621 2786 2406 2920 
Q 2191 3055 1900 3055 
Q 1580 3055 1347 2897 
Q 1114 2739 989 2486 
Q 864 2234 864 1945 
L 864 1636 
Q 864 1241 1001 967 
Q 1139 693 1384 551 
Q 1630 409 1955 409 
Q 2166 409 2337 469 
Q 2509 530 2634 651 
Q 2759 773 2827 955 
L 3346 809 
Q 3264 545 3070 346 
Q 2877 148 2593 37 
Q 2309 -73 1955 -73 
z
" transform="scale(0.015625)"/>
       <path id="Inter-Regular-6c" d="M 1027 4655 
L 1027 0 
L 491 0 
L 491 4655 
L 1027 4655 
z
" transform="scale(0.015625)"/>
       <path id="Inter-Regular-20" transform="scale(0.015625)"/>
       <path id="Inter-Regular-74" d="M 2009 3491 
L 2009 3036 
L 200 3036 
L 200 3491 
L 2009 3491 
z
M 727 4327 
L 1264 4327 
L 1264 1000 
Q 1264 773 1331 660 
Q 1398 548 1503 510 
Q 1609 473 1727 473 
Q 1816 473 1873 483 
Q 1930 493 1964 500 
L 2073 18 
Q 2018 -2 1920 -23 
Q 1823 -45 1673 -45 
Q 1446 -45 1228 52 
Q 1011 150 869 350 
Q 727 550 727 855 
L 727 4327 
z
" transform="scale(0.015625)"/>
       <path id="Inter-Regular-69" d="M 491 0 
L 491 3491 
L 1027 3491 
L 1027 0 
L 491 0 
z
M 764 4073 
Q 607 4073 494 4179 
Q 382 4286 382 4436 
Q 382 4586 494 4693 
Q 607 4800 764 4800 
Q 921 4800 1033 4693 
Q 1146 4586 1146 4436 
Q 1146 4286 1033 4179 
Q 921 4073 764 4073 
z
" transform="scale(0.015625)"/>
       <path id="Inter-Regular-6d" d="M 491 0 
L 491 3491 
L 1009 3491 
L 1009 2945 
L 1055 2945 
Q 1164 3225 1407 3380 
Q 1650 3536 1991 3536 
Q 2336 3536 2567 3380 
Q 2798 3225 2927 2945 
L 2964 2945 
Q 3098 3216 3366 3376 
Q 3634 3536 4009 3536 
Q 4477 3536 4775 3244 
Q 5073 2952 5073 2336 
L 5073 0 
L 4536 0 
L 4536 2336 
Q 4536 2723 4325 2889 
Q 4114 3055 3827 3055 
Q 3459 3055 3257 2833 
Q 3055 2611 3055 2273 
L 3055 0 
L 2509 0 
L 2509 2391 
Q 2509 2689 2316 2872 
Q 2123 3055 1818 3055 
Q 1609 3055 1428 2943 
Q 1248 2832 1137 2635 
Q 1027 2439 1027 2182 
L 1027 0 
L 491 0 
z
" transform="scale(0.015625)"/>
       <path id="Inter-Regular-28" d="M 682 1964 
Q 682 2823 906 3544 
Q 1130 4266 1546 4873 
L 2018 4873 
Q 1855 4648 1713 4319 
Q 1571 3991 1464 3599 
Q 1357 3207 1296 2788 
Q 1236 2370 1236 1964 
Q 1236 1423 1341 866 
Q 1446 309 1623 -168 
Q 1800 -645 2018 -945 
L 1546 -945 
Q 1130 -339 906 383 
Q 682 1105 682 1964 
z
" transform="scale(0.015625)"/>
       <path id="Inter-Regular-6e" d="M 1027 2100 
L 1027 0 
L 491 0 
L 491 3491 
L 1009 3491 
L 1009 2945 
L 1055 2945 
Q 1177 3211 1427 3373 
Q 1677 3536 2073 3536 
Q 2427 3536 2693 3392 
Q 2959 3248 3107 2956 
Q 3255 2664 3255 2218 
L 3255 0 
L 2718 0 
L 2718 2182 
Q 2718 2593 2504 2824 
Q 2291 3055 1918 3055 
Q 1661 3055 1460 2943 
Q 1259 2832 1143 2618 
Q 1027 2405 1027 2100 
z
" transform="scale(0.015625)"/>
       <path id="Inter-Regular-75" d="M 2691 1427 
L 2691 3491 
L 3227 3491 
L 3227 0 
L 2691 0 
L 2691 591 
L 2655 591 
Q 2532 325 2273 140 
Q 2014 -45 1618 -45 
Q 1291 -45 1036 99 
Q 782 243 636 535 
Q 491 827 491 1273 
L 491 3491 
L 1027 3491 
L 1027 1309 
Q 1027 927 1242 700 
Q 1457 473 1791 473 
Q 1991 473 2199 575 
Q 2407 677 2549 888 
Q 2691 1100 2691 1427 
z
" transform="scale(0.015625)"/>
       <path id="Inter-Regular-73" d="M 2964 2709 
L 2482 2573 
Q 2436 2693 2348 2808 
Q 2261 2923 2111 2998 
Q 1961 3073 1727 3073 
Q 1407 3073 1194 2926 
Q 982 2780 982 2555 
Q 982 2355 1127 2239 
Q 1273 2123 1582 2045 
L 2100 1918 
Q 2568 1805 2797 1572 
Q 3027 1339 3027 973 
Q 3027 673 2855 436 
Q 2684 200 2377 63 
Q 2071 -73 1664 -73 
Q 1130 -73 780 159 
Q 430 391 336 836 
L 846 964 
Q 918 682 1121 541 
Q 1325 400 1655 400 
Q 2030 400 2251 560 
Q 2473 720 2473 945 
Q 2473 1127 2345 1251 
Q 2218 1375 1955 1436 
L 1373 1573 
Q 893 1686 669 1926 
Q 446 2166 446 2527 
Q 446 2823 613 3050 
Q 780 3277 1069 3406 
Q 1359 3536 1727 3536 
Q 2246 3536 2542 3309 
Q 2839 3082 2964 2709 
z
" transform="scale(0.015625)"/>
       <path id="Inter-Regular-29" d="M 1636 1964 
Q 1636 1105 1412 383 
Q 1189 -339 773 -945 
L 300 -945 
Q 464 -720 606 -392 
Q 748 -64 854 328 
Q 961 720 1021 1139 
Q 1082 1559 1082 1964 
Q 1082 2505 977 3061 
Q 873 3618 695 4095 
Q 518 4573 300 4873 
L 773 4873 
Q 1189 4266 1412 3544 
Q 1636 2823 1636 1964 
z
" transform="scale(0.015625)"/>
      </defs>
      <use xlink:href="#Inter-Regular-54"/>
      <use xlink:href="#Inter-Regular-72" transform="translate(64.204559 0)"/>
      <use xlink:href="#Inter-Regular-61" transform="translate(101.420471 0)"/>
      <use xlink:href="#Inter-Regular-76" transform="translate(157.812531 0)"/>
      <use xlink:href="#Inter-Regular-65" transform="translate(213.494354 0)"/>
      <use xlink:href="#Inter-Regular-6c" transform="translate(271.733002 0)"/>
      <use xlink:href="#Inter-Regular-20" transform="translate(295.45459 0)"/>
      <use xlink:href="#Inter-Regular-74" transform="translate(323.57959 0)"/>
      <use xlink:href="#Inter-Regular-69" transform="translate(359.943237 0)"/>
      <use xlink:href="#Inter-Regular-6d" transform="translate(383.664825 0)"/>
      <use xlink:href="#Inter-Regular-65" transform="translate(470.596664 0)"/>
      <use xlink:href="#Inter-Regular-20" transform="translate(528.835312 0)"/>
      <use xlink:href="#Inter-Regular-28" transform="translate(556.960312 0)"/>
      <use xlink:href="#Inter-Regular-6d" transform="translate(593.1819 0)"/>
      <use xlink:href="#Inter-Regular-69" transform="translate(680.113739 0)"/>
      <use xlink:href="#Inter-Regular-6e" transform="translate(703.835327 0)"/>
      <use xlink:href="#Inter-Regular-75" transform="translate(762.358063 0)"/>
      <use xlink:href="#Inter-Regular-74" transform="translate(820.454666 0)"/>
      <use xlink:href="#Inter-Regular-65" transform="translate(856.818314 0)"/>
      <use xlink:href="#Inter-Regular-73" transform="translate(915.056961 0)"/>
      <use xlink:href="#Inter-Regular-29" transform="translate(967.329697 0)"/>
     </g>
    </g>
   </g>
   <g id="matplotlib.axis_2">
    <g id="ytick_1">
     <g id="line2d_10">
      <defs>
       <path id="m014bc88831" d="M 0 0 
L -3.5 0 
" style="stroke: #737373; stroke-width: 0.8"/>
      </defs>
      <g>
       <use xlink:href="#m014bc88831" x="38.414062" y="193.894062" style="fill: #737373; stroke: #737373; stroke-width: 0.8"/>
      </g>
     </g>
     <g id="text_11">
      <!-- 0 -->
      <g style="fill: #737373" transform="translate(25.164062 197.530781) scale(0.1 -0.1)">
       <use xlink:href="#Inter-Regular-30"/>
      </g>
     </g>
    </g>
    <g id="ytick_2">
     <g id="line2d_11">
      <g>
       <use xlink:href="#m014bc88831" x="38.414062" y="160.926443" style="fill: #737373; stroke: #737373; stroke-width: 0.8"/>
      </g>
     </g>
     <g id="text_12">
      <!-- 2 -->
      <g style="fill: #737373" transform="translate(25.3625 164.563162) scale(0.1 -0.1)">
       <use xlink:href="#Inter-Regular-32"/>
      </g>
     </g>
    </g>
    <g id="ytick_3">
     <g id="line2d_12">
      <g>
       <use xlink:href="#m014bc88831" x="38.414062" y="127.958824" style="fill: #737373; stroke: #737373; stroke-width: 0.8"/>
      </g>
     </g>
     <g id="text_13">
      <!-- 4 -->
      <g style="fill: #737373" transform="translate(24.99375 131.595543) scale(0.1 -0.1)">
       <use xlink:href="#Inter-Regular-34"/>
      </g>
     </g>
    </g>
    <g id="ytick_4">
     <g id="line2d_13">
      <g>
       <use xlink:href="#m014bc88831" x="38.414062" y="94.991205" style="fill: #737373; stroke: #737373; stroke-width: 0.8"/>
      </g>
     </g>
     <g id="text_14">
      <!-- 6 -->
      <g style="fill: #737373" transform="translate(25.178125 98.627924) scale(0.1 -0.1)">
       <use xlink:href="#Inter-Regular-36"/>
      </g>
     </g>
    </g>
    <g id="ytick_5">
     <g id="line2d_14">
      <g>
       <use xlink:href="#m014bc88831" x="38.414062" y="62.023586" style="fill: #737373; stroke: #737373; stroke-width: 0.8"/>
      </g>
     </g>
     <g id="text_15">
      <!-- 8 -->
      <g style="fill: #737373" transform="translate(25.248438 65.660305) scale(0.1 -0.1)">
       <use xlink:href="#Inter-Regular-38"/>
      </g>
     </g>
    </g>
    <g id="ytick_6">
     <g id="line2d_15">
      <g>
       <use xlink:href="#m014bc88831" x="38.414062" y="29.055967" style="fill: #737373; stroke: #737373; stroke-width: 0.8"/>
      </g>
     </g>
     <g id="text_16">
      <!-- 10 -->
      <g style="fill: #737373" transform="translate(20.51875 32.692686) scale(0.1 -0.1)">
       <use xlink:href="#Inter-Regular-31"/>
       <use xlink:href="#Inter-Regular-30" transform="translate(46.448868 0)"/>
      </g>
     </g>
    </g>
    <g id="text_17">
     <!-- Sites -->
     <g style="fill: #737373" transform="translate(14.473437 119.072812) rotate(-90) scale(0.1 -0.1)">
      <defs>
       <path id="Inter-Regular-53" d="M 3109 3491 
Q 3068 3836 2777 4027 
Q 2486 4218 2064 4218 
Q 1755 4218 1524 4118 
Q 1293 4018 1164 3843 
Q 1036 3668 1036 3445 
Q 1036 3259 1126 3126 
Q 1216 2993 1357 2905 
Q 1498 2818 1652 2762 
Q 1807 2707 1936 2673 
L 2409 2545 
Q 2591 2498 2815 2414 
Q 3039 2330 3244 2185 
Q 3450 2041 3584 1816 
Q 3718 1591 3718 1264 
Q 3718 886 3521 581 
Q 3325 277 2949 97 
Q 2573 -82 2036 -82 
Q 1536 -82 1171 79 
Q 807 241 599 529 
Q 391 818 364 1200 
L 946 1200 
Q 968 936 1124 764 
Q 1280 593 1519 510 
Q 1759 427 2036 427 
Q 2359 427 2616 533 
Q 2873 639 3023 828 
Q 3173 1018 3173 1273 
Q 3173 1505 3043 1650 
Q 2914 1795 2702 1886 
Q 2491 1977 2246 2045 
L 1673 2209 
Q 1127 2366 809 2657 
Q 491 2948 491 3418 
Q 491 3809 703 4101 
Q 916 4393 1276 4555 
Q 1636 4718 2082 4718 
Q 2532 4718 2882 4558 
Q 3232 4398 3437 4120 
Q 3643 3843 3655 3491 
L 3109 3491 
z
" transform="scale(0.015625)"/>
      </defs>
      <use xlink:href="#Inter-Regular-53"/>
      <use xlink:href="#Inter-Regular-69" transform="translate(63.778427 0)"/>
      <use xlink:href="#Inter-Regular-74" transform="translate(87.500015 0)"/>
      <use xlink:href="#Inter-Regular-65" transform="translate(123.863663 0)"/>
      <use xlink:href="#Inter-Regular-73" transform="translate(182.10231 0)"/>
     </g>
    </g>
   </g>
   <g id="line2d_16">
    <path d="M 105.051058 193.894062 
L 105.051058 20.814062 
" clip-path="url(#pcc7800a0c5)" style="fill: none; stroke-dasharray: 3.7,1.6; stroke-dashoffset: 0; stroke: #ffa500"/>
   </g>
   <g id="patch_63">
    <path d="M 38.414062 193.894062 
L 38.414062 20.814062 
" style="fill: none; stroke: #737373; stroke-width: 0.8; stroke-linejoin: miter; stroke-linecap: square"/>
   </g>
   <g id="patch_64">
    <path d="M 38.414062 193.894062 
L 454.959063 193.894062 
" style="fill: none; stroke: #737373; stroke-width: 0.8; stroke-linejoin: miter; stroke-linecap: square"/>
   </g>
   <g id="text_18">
    <!-- Median: 128 minutes -->
    <g style="fill: #ffa500" transform="translate(107.654464 31.67003) scale(0.1 -0.1)">
     <defs>
      <path id="Inter-Regular-4d" d="M 564 4655 
L 1236 4655 
L 2818 791 
L 2873 791 
L 4455 4655 
L 5127 4655 
L 5127 0 
L 4600 0 
L 4600 3536 
L 4555 3536 
L 3100 0 
L 2591 0 
L 1136 3536 
L 1091 3536 
L 1091 0 
L 564 0 
L 564 4655 
z
" transform="scale(0.015625)"/>
      <path id="Inter-Regular-64" d="M 1809 -73 
Q 1373 -73 1039 148 
Q 705 370 516 776 
Q 327 1182 327 1736 
Q 327 2286 516 2690 
Q 705 3095 1041 3315 
Q 1377 3536 1818 3536 
Q 2159 3536 2358 3423 
Q 2557 3311 2662 3169 
Q 2768 3027 2827 2936 
L 2873 2936 
L 2873 4655 
L 3409 4655 
L 3409 0 
L 2891 0 
L 2891 536 
L 2827 536 
Q 2768 441 2659 296 
Q 2550 152 2348 39 
Q 2146 -73 1809 -73 
z
M 1882 409 
Q 2205 409 2427 578 
Q 2650 748 2766 1049 
Q 2882 1350 2882 1745 
Q 2882 2136 2768 2430 
Q 2655 2725 2432 2890 
Q 2209 3055 1882 3055 
Q 1541 3055 1315 2881 
Q 1089 2707 976 2410 
Q 864 2114 864 1745 
Q 864 1373 978 1069 
Q 1093 766 1319 587 
Q 1546 409 1882 409 
z
" transform="scale(0.015625)"/>
      <path id="Inter-Regular-3a" d="M 882 -36 
Q 714 -36 593 84 
Q 473 205 473 373 
Q 473 541 593 661 
Q 714 782 882 782 
Q 1050 782 1170 661 
Q 1291 541 1291 373 
Q 1291 261 1235 168 
Q 1180 75 1088 19 
Q 996 -36 882 -36 
z
M 882 2555 
Q 714 2555 593 2675 
Q 473 2795 473 2964 
Q 473 3132 593 3252 
Q 714 3373 882 3373 
Q 1050 3373 1170 3252 
Q 1291 3132 1291 2964 
Q 1291 2852 1235 2759 
Q 1180 2666 1088 2610 
Q 996 2555 882 2555 
z
" transform="scale(0.015625)"/>
     </defs>
     <use xlink:href="#Inter-Regular-4d"/>
     <use xlink:href="#Inter-Regular-65" transform="translate(88.920471 0)"/>
     <use xlink:href="#Inter-Regular-64" transform="translate(147.159119 0)"/>
     <use xlink:href="#Inter-Regular-69" transform="translate(209.233002 0)"/>
     <use xlink:href="#Inter-Regular-61" transform="translate(232.95459 0)"/>
     <use xlink:href="#Inter-Regular-6e" transform="translate(289.346649 0)"/>
     <use xlink:href="#Inter-Regular-3a" transform="translate(347.869385 0)"/>
     <use xlink:href="#Inter-Regular-20" transform="translate(375.426208 0)"/>
     <use xlink:href="#Inter-Regular-31" transform="translate(403.551208 0)"/>
     <use xlink:href="#Inter-Regular-32" transform="translate(450.000076 0)"/>
     <use xlink:href="#Inter-Regular-38" transform="translate(510.511459 0)"/>
     <use xlink:href="#Inter-Regular-20" transform="translate(572.159195 0)"/>
     <use xlink:href="#Inter-Regular-6d" transform="translate(600.284195 0)"/>
     <use xlink:href="#Inter-Regular-69" transform="translate(687.216034 0)"/>
     <use xlink:href="#Inter-Regular-6e" transform="translate(710.937622 0)"/>
     <use xlink:href="#Inter-Regular-75" transform="translate(769.460358 0)"/>
     <use xlink:href="#Inter-Regular-74" transform="translate(827.556961 0)"/>
     <use xlink:href="#Inter-Regular-65" transform="translate(863.920609 0)"/>
     <use xlink:href="#Inter-Regular-73" transform="translate(922.159256 0)"/>
    </g>
   </g>
   <g id="text_19">
    <!-- Distribution of travel times - computational approach -->
    <g style="fill: #737373" transform="translate(121.771719 14.814062) scale(0.1 -0.1)">
     <defs>
      <path id="Inter-Regular-44" d="M 2000 0 
L 564 0 
L 564 4655 
L 2064 4655 
Q 2741 4655 3223 4376 
Q 3705 4098 3961 3578 
Q 4218 3059 4218 2336 
Q 4218 1609 3959 1085 
Q 3700 561 3204 280 
Q 2709 0 2000 0 
z
M 1127 500 
L 1964 500 
Q 2541 500 2920 722 
Q 3300 945 3486 1356 
Q 3673 1768 3673 2336 
Q 3673 2900 3489 3308 
Q 3305 3716 2939 3935 
Q 2573 4155 2027 4155 
L 1127 4155 
L 1127 500 
z
" transform="scale(0.015625)"/>
      <path id="Inter-Regular-62" d="M 564 0 
L 564 4655 
L 1100 4655 
L 1100 2936 
L 1146 2936 
Q 1205 3027 1310 3169 
Q 1416 3311 1615 3423 
Q 1814 3536 2155 3536 
Q 2596 3536 2932 3315 
Q 3268 3095 3457 2690 
Q 3646 2286 3646 1736 
Q 3646 1182 3457 776 
Q 3268 370 2934 148 
Q 2600 -73 2164 -73 
Q 1827 -73 1625 39 
Q 1423 152 1314 296 
Q 1205 441 1146 536 
L 1082 536 
L 1082 0 
L 564 0 
z
M 1091 1745 
Q 1091 1350 1207 1049 
Q 1323 748 1545 578 
Q 1768 409 2091 409 
Q 2427 409 2653 587 
Q 2880 766 2994 1069 
Q 3109 1373 3109 1745 
Q 3109 2114 2996 2410 
Q 2884 2707 2658 2881 
Q 2432 3055 2091 3055 
Q 1764 3055 1541 2890 
Q 1318 2725 1204 2430 
Q 1091 2136 1091 1745 
z
" transform="scale(0.015625)"/>
      <path id="Inter-Regular-6f" d="M 1909 -73 
Q 1436 -73 1080 152 
Q 725 377 526 781 
Q 327 1186 327 1727 
Q 327 2273 526 2679 
Q 725 3086 1080 3311 
Q 1436 3536 1909 3536 
Q 2382 3536 2737 3311 
Q 3093 3086 3292 2679 
Q 3491 2273 3491 1727 
Q 3491 1186 3292 781 
Q 3093 377 2737 152 
Q 2382 -73 1909 -73 
z
M 1909 409 
Q 2268 409 2500 593 
Q 2732 777 2843 1077 
Q 2955 1377 2955 1727 
Q 2955 2077 2843 2379 
Q 2732 2682 2500 2868 
Q 2268 3055 1909 3055 
Q 1550 3055 1318 2868 
Q 1086 2682 975 2379 
Q 864 2077 864 1727 
Q 864 1377 975 1077 
Q 1086 777 1318 593 
Q 1550 409 1909 409 
z
" transform="scale(0.015625)"/>
      <path id="Inter-Regular-66" d="M 2046 3491 
L 2046 3036 
L 164 3036 
L 164 3491 
L 2046 3491 
z
M 727 0 
L 727 3973 
Q 727 4273 868 4473 
Q 1009 4673 1234 4773 
Q 1459 4873 1709 4873 
Q 1907 4873 2032 4841 
Q 2157 4809 2218 4782 
L 2064 4318 
Q 2023 4332 1951 4352 
Q 1880 4373 1764 4373 
Q 1498 4373 1381 4239 
Q 1264 4105 1264 3845 
L 1264 0 
L 727 0 
z
" transform="scale(0.015625)"/>
      <path id="Inter-Regular-2d" d="M 2491 2245 
L 2491 1745 
L 455 1745 
L 455 2245 
L 2491 2245 
z
" transform="scale(0.015625)"/>
      <path id="Inter-Regular-63" d="M 1909 -73 
Q 1418 -73 1063 159 
Q 709 391 518 798 
Q 327 1205 327 1727 
Q 327 2259 524 2667 
Q 721 3075 1074 3305 
Q 1427 3536 1900 3536 
Q 2268 3536 2563 3400 
Q 2859 3264 3047 3018 
Q 3236 2773 3282 2445 
L 2746 2445 
Q 2684 2684 2474 2869 
Q 2264 3055 1909 3055 
Q 1596 3055 1360 2892 
Q 1125 2730 994 2435 
Q 864 2141 864 1745 
Q 864 1341 992 1041 
Q 1121 741 1356 575 
Q 1591 409 1909 409 
Q 2118 409 2288 482 
Q 2459 555 2577 691 
Q 2696 827 2746 1018 
L 3282 1018 
Q 3236 709 3058 462 
Q 2880 216 2588 71 
Q 2296 -73 1909 -73 
z
" transform="scale(0.015625)"/>
      <path id="Inter-Regular-70" d="M 491 -1309 
L 491 3491 
L 1009 3491 
L 1009 2936 
L 1073 2936 
Q 1132 3027 1237 3169 
Q 1343 3311 1542 3423 
Q 1741 3536 2082 3536 
Q 2523 3536 2859 3315 
Q 3196 3095 3384 2690 
Q 3573 2286 3573 1736 
Q 3573 1182 3384 776 
Q 3196 370 2861 148 
Q 2527 -73 2091 -73 
Q 1755 -73 1552 39 
Q 1350 152 1241 296 
Q 1132 441 1073 536 
L 1027 536 
L 1027 -1309 
L 491 -1309 
z
M 1018 1745 
Q 1018 1350 1134 1049 
Q 1250 748 1473 578 
Q 1696 409 2018 409 
Q 2355 409 2581 587 
Q 2807 766 2921 1069 
Q 3036 1373 3036 1745 
Q 3036 2114 2923 2410 
Q 2811 2707 2585 2881 
Q 2359 3055 2018 3055 
Q 1691 3055 1468 2890 
Q 1246 2725 1132 2430 
Q 1018 2136 1018 1745 
z
" transform="scale(0.015625)"/>
      <path id="Inter-Regular-68" d="M 1027 2100 
L 1027 0 
L 491 0 
L 491 4655 
L 1027 4655 
L 1027 2945 
L 1073 2945 
Q 1196 3216 1442 3376 
Q 1689 3536 2100 3536 
Q 2457 3536 2725 3394 
Q 2993 3252 3142 2960 
Q 3291 2668 3291 2218 
L 3291 0 
L 2755 0 
L 2755 2182 
Q 2755 2598 2540 2826 
Q 2325 3055 1946 3055 
Q 1682 3055 1474 2943 
Q 1266 2832 1146 2618 
Q 1027 2405 1027 2100 
z
" transform="scale(0.015625)"/>
     </defs>
     <use xlink:href="#Inter-Regular-44"/>
     <use xlink:href="#Inter-Regular-69" transform="translate(71.875015 0)"/>
     <use xlink:href="#Inter-Regular-73" transform="translate(95.596603 0)"/>
     <use xlink:href="#Inter-Regular-74" transform="translate(147.869339 0)"/>
     <use xlink:href="#Inter-Regular-72" transform="translate(184.232986 0)"/>
     <use xlink:href="#Inter-Regular-69" transform="translate(221.448898 0)"/>
     <use xlink:href="#Inter-Regular-62" transform="translate(245.170486 0)"/>
     <use xlink:href="#Inter-Regular-75" transform="translate(307.24437 0)"/>
     <use xlink:href="#Inter-Regular-74" transform="translate(365.340973 0)"/>
     <use xlink:href="#Inter-Regular-69" transform="translate(401.70462 0)"/>
     <use xlink:href="#Inter-Regular-6f" transform="translate(425.426208 0)"/>
     <use xlink:href="#Inter-Regular-6e" transform="translate(485.085312 0)"/>
     <use xlink:href="#Inter-Regular-20" transform="translate(543.608047 0)"/>
     <use xlink:href="#Inter-Regular-6f" transform="translate(571.733047 0)"/>
     <use xlink:href="#Inter-Regular-66" transform="translate(631.392151 0)"/>
     <use xlink:href="#Inter-Regular-20" transform="translate(667.471695 0)"/>
     <use xlink:href="#Inter-Regular-74" transform="translate(695.596695 0)"/>
     <use xlink:href="#Inter-Regular-72" transform="translate(731.960342 0)"/>
     <use xlink:href="#Inter-Regular-61" transform="translate(769.176254 0)"/>
     <use xlink:href="#Inter-Regular-76" transform="translate(825.568314 0)"/>
     <use xlink:href="#Inter-Regular-65" transform="translate(881.250137 0)"/>
     <use xlink:href="#Inter-Regular-6c" transform="translate(939.488785 0)"/>
     <use xlink:href="#Inter-Regular-20" transform="translate(963.210373 0)"/>
     <use xlink:href="#Inter-Regular-74" transform="translate(991.335373 0)"/>
     <use xlink:href="#Inter-Regular-69" transform="translate(1027.69902 0)"/>
     <use xlink:href="#Inter-Regular-6d" transform="translate(1051.420609 0)"/>
     <use xlink:href="#Inter-Regular-65" transform="translate(1138.352448 0)"/>
     <use xlink:href="#Inter-Regular-73" transform="translate(1196.591095 0)"/>
     <use xlink:href="#Inter-Regular-20" transform="translate(1248.863831 0)"/>
     <use xlink:href="#Inter-Regular-2d" transform="translate(1276.988831 0)"/>
     <use xlink:href="#Inter-Regular-20" transform="translate(1323.011566 0)"/>
     <use xlink:href="#Inter-Regular-63" transform="translate(1351.136566 0)"/>
     <use xlink:href="#Inter-Regular-6f" transform="translate(1406.960434 0)"/>
     <use xlink:href="#Inter-Regular-6d" transform="translate(1466.619537 0)"/>
     <use xlink:href="#Inter-Regular-70" transform="translate(1553.551376 0)"/>
     <use xlink:href="#Inter-Regular-75" transform="translate(1614.488892 0)"/>
     <use xlink:href="#Inter-Regular-74" transform="translate(1672.585495 0)"/>
     <use xlink:href="#Inter-Regular-61" transform="translate(1708.949142 0)"/>
     <use xlink:href="#Inter-Regular-74" transform="translate(1765.341202 0)"/>
     <use xlink:href="#Inter-Regular-69" transform="translate(1801.704849 0)"/>
     <use xlink:href="#Inter-Regular-6f" transform="translate(1825.426437 0)"/>
     <use xlink:href="#Inter-Regular-6e" transform="translate(1885.085541 0)"/>
     <use xlink:href="#Inter-Regular-61" transform="translate(1943.608276 0)"/>
     <use xlink:href="#Inter-Regular-6c" transform="translate(2000.000336 0)"/>
     <use xlink:href="#Inter-Regular-20" transform="translate(2023.721924 0)"/>
     <use xlink:href="#Inter-Regular-61" transform="translate(2051.846924 0)"/>
     <use xlink:href="#Inter-Regular-70" transform="translate(2108.238983 0)"/>
     <use xlink:href="#Inter-Regular-70" transform="translate(2169.176498 0)"/>
     <use xlink:href="#Inter-Regular-72" transform="translate(2230.114014 0)"/>
     <use xlink:href="#Inter-Regular-6f" transform="translate(2267.329926 0)"/>
     <use xlink:href="#Inter-Regular-61" transform="translate(2326.989029 0)"/>
     <use xlink:href="#Inter-Regular-63" transform="translate(2383.381088 0)"/>
     <use xlink:href="#Inter-Regular-68" transform="translate(2439.204956 0)"/>
    </g>
   </g>
  </g>
  <g id="axes_2">
   <g id="matplotlib.axis_3"/>
   <g id="line2d_17">
    <path d="M -1 156.664195 
L 2.07938 152.482382 
L 5.703284 147.192799 
L 9.327189 141.554419 
L 12.951094 135.594409 
L 16.574998 129.347515 
L 23.822807 116.167842 
L 45.566235 75.259885 
L 49.190139 68.919197 
L 52.814044 62.88694 
L 56.437948 57.221185 
L 60.061853 51.974852 
L 63.685757 47.194869 
L 67.309662 42.921509 
L 70.933567 39.187934 
L 74.557471 36.01994 
L 78.181376 33.435873 
L 81.80528 31.446723 
L 85.429185 30.056342 
L 89.053089 29.261783 
L 92.676994 29.053725 
L 96.300898 29.416957 
L 99.924803 30.330895 
L 103.548708 31.770141 
L 107.172612 33.705032 
L 110.796517 36.102209 
L 114.420421 38.92518 
L 118.044326 42.134883 
L 121.66823 45.690257 
L 125.292135 49.548809 
L 128.91604 53.66719 
L 136.163849 62.509246 
L 143.411658 71.874477 
L 161.531181 95.580602 
L 168.77899 104.549014 
L 176.026799 112.982967 
L 183.274608 120.805979 
L 190.522417 127.996274 
L 197.770226 134.576023 
L 205.018035 140.597865 
L 212.265844 146.130677 
L 219.513654 151.246406 
L 226.761463 156.009383 
L 234.009272 160.468999 
L 241.257081 164.656043 
L 248.50489 168.58246 
L 255.752699 172.243897 
L 263.000508 175.624154 
L 270.248317 178.70052 
L 277.496127 181.449078 
L 284.743936 183.849176 
L 291.991745 185.886608 
L 299.239554 187.555319 
L 306.487363 188.857802 
L 313.735172 189.804569 
L 320.982981 190.413221 
L 328.23079 190.707597 
L 335.478599 190.717304 
L 342.726409 190.477677 
L 349.974218 190.0299 
L 360.845931 189.07182 
L 393.461072 185.775229 
L 404.332786 185.017955 
L 415.2045 184.528808 
L 426.076213 184.26297 
L 444.195736 184.092007 
L 472.491875 184.051775 
L 472.491875 184.051775 
" clip-path="url(#pcc7800a0c5)" style="fill: none; stroke: #418fde; stroke-width: 1.5; stroke-linecap: square"/>
   </g>
   <g id="patch_65">
    <path d="M 38.414062 193.894062 
L 38.414062 20.814062 
" style="fill: none; stroke: #737373; stroke-width: 0.8; stroke-linejoin: miter; stroke-linecap: square"/>
   </g>
   <g id="patch_66">
    <path d="M 38.414062 193.894062 
L 454.959063 193.894062 
" style="fill: none; stroke: #737373; stroke-width: 0.8; stroke-linejoin: miter; stroke-linecap: square"/>
   </g>
  </g>
 </g>
 <defs>
  <clipPath id="pcc7800a0c5">
   <rect x="38.414062" y="20.814062" width="416.545" height="173.08"/>
  </clipPath>
 </defs>
</svg>
